# Blender v2.78 (sub 0) OBJ File: 'i_beam_long.blend'
# www.blender.org
mtllib i_beam_long.mtl
o Cube
v 1.000000 -1.000000 -24.999968
v 1.000000 -1.000000 24.999969
v -1.000000 -1.000000 24.999966
v -1.000000 -1.000000 -24.999979
v 1.000000 1.000000 -24.999956
v 0.999999 1.000000 24.999985
v -1.000000 1.000000 24.999960
v -1.000000 1.000000 -24.999969
v 1.000000 3.000000 -24.999956
v 0.999999 3.000000 24.999985
v -1.000000 3.000000 -24.999969
v -1.000000 3.000000 24.999960
v 1.000000 -3.000000 -24.999968
v 1.000000 -3.000000 24.999969
v -1.000000 -3.000000 -24.999979
v -1.000000 -3.000000 24.999966
v -3.000000 -1.000000 24.999952
v -3.000000 -1.000000 -24.999990
v -3.000000 -3.000000 24.999952
v -3.000000 -3.000000 -24.999990
v 3.000000 -1.000000 -24.999968
v 3.000000 -1.000000 24.999969
v 3.000000 -3.000000 -24.999968
v 3.000000 -3.000000 24.999969
v 3.000000 1.000000 -24.999928
v 2.999999 1.000000 25.000011
v 3.000000 3.000000 -24.999928
v 2.999999 3.000000 25.000011
v -3.000000 1.000000 24.999950
v -3.000000 1.000000 -24.999981
v -3.000000 3.000000 24.999950
v -3.000000 3.000000 -24.999981
vn 0.0000 0.0000 1.0000
vn 0.0000 -1.0000 0.0000
vn 1.0000 0.0000 0.0000
vn -1.0000 -0.0000 -0.0000
vn 0.0000 0.0000 -1.0000
vn 0.0000 1.0000 0.0000
usemtl Material
s off
f 2//1 14//1 24//1 22//1
f 6//2 5//2 25//2 26//2
f 1//3 5//3 6//3 2//3
f 2//1 6//1 7//1 3//1
f 3//4 7//4 8//4 4//4
f 5//5 1//5 4//5 8//5
f 9//6 11//6 12//6 10//6
f 11//5 8//5 30//5 32//5
f 5//5 8//5 11//5 9//5
f 7//1 6//1 10//1 12//1
f 13//2 14//2 16//2 15//2
f 4//5 15//5 20//5 18//5
f 2//1 3//1 16//1 14//1
f 4//5 1//5 13//5 15//5
f 17//4 18//4 20//4 19//4
f 3//6 4//6 18//6 17//6
f 16//1 3//1 17//1 19//1
f 15//2 16//2 19//2 20//2
f 21//3 22//3 24//3 23//3
f 1//6 2//6 22//6 21//6
f 14//2 13//2 23//2 24//2
f 13//5 1//5 21//5 23//5
f 26//3 25//3 27//3 28//3
f 10//1 6//1 26//1 28//1
f 5//5 9//5 27//5 25//5
f 9//6 10//6 28//6 27//6
f 30//4 29//4 31//4 32//4
f 12//6 11//6 32//6 31//6
f 8//2 7//2 29//2 30//2
f 7//1 12//1 31//1 29//1
