# Blender v2.78 (sub 0) OBJ File: 'tetris_l.blend'
# www.blender.org
mtllib tetris_l_mess_6.mtl
o Cube
v 1.000000 -1.000000 -1.000000
v 1.000000 -1.000000 1.000000
v -1.000000 -1.000000 1.000000
v -1.000000 -1.000000 -1.000000
v 1.000000 0.000000 -0.999999
v 0.999999 0.000000 1.000001
v -1.000000 1.000000 1.000000
v -1.000000 1.000000 -1.000000
v 1.000000 -1.000000 -3.000000
v -0.999999 -1.000000 -3.000000
v 1.000001 1.000000 -3.000000
v -0.999999 1.000000 -3.000000
v 0.999999 -1.000000 3.000000
v -1.000001 -1.000000 3.000000
v 0.999999 1.000000 3.000000
v -1.000001 1.000000 3.000000
v 1.000000 3.000000 -0.999999
v 0.000000 3.000000 -1.000000
v 1.000001 3.000000 -2.999999
v 0.000001 3.000000 -3.000000
vn 0.0000 -1.0000 0.0000
vn 0.4472 0.8944 0.0000
vn 1.0000 0.0000 0.0000
vn -1.0000 -0.0000 -0.0000
vn -0.0000 -0.0000 1.0000
vn 0.0000 0.0000 -1.0000
vn 0.2357 0.9428 -0.2357
vn -0.0000 1.0000 0.0000
vn -0.8944 0.4472 -0.0000
usemtl Material
s off
f 1//1 2//1 3//1 4//1
f 5//2 8//2 7//2 6//2
f 1//3 5//3 6//3 2//3
f 3//1 2//1 13//1 14//1
f 3//4 7//4 8//4 4//4
f 8//5 5//5 17//5 18//5
f 11//6 9//6 10//6 12//6
f 4//4 8//4 12//4 10//4
f 1//1 4//1 10//1 9//1
f 5//3 1//3 9//3 11//3
f 13//5 15//5 16//5 14//5
f 6//7 7//7 16//7 15//7
f 7//4 3//4 14//4 16//4
f 2//3 6//3 15//3 13//3
f 18//8 17//8 19//8 20//8
f 5//3 11//3 19//3 17//3
f 12//9 8//9 18//9 20//9
f 11//6 12//6 20//6 19//6
