# Blender v2.78 (sub 0) OBJ File: 'arrow_sign.blend'
# www.blender.org
mtllib arrow_sign.mtl
o Cube
v 0.000000 -2.100000 -1.800000
v 1.732051 0.900000 -1.800000
v 0.000000 -0.100000 -5.800000
v -1.732051 0.900000 -1.800000
v -0.300000 -3.500000 0.300000
v -0.300000 -3.500000 -0.300000
v 0.300000 -3.500000 0.300000
v 0.300000 -3.500000 -0.300000
v 0.700000 -0.700000 2.000000
v -0.700000 -0.700000 2.000000
v 0.700000 0.700000 2.000001
v -0.700000 0.700000 1.999999
v -0.300000 -0.700000 0.300000
v 0.300000 -0.700000 0.300000
v -0.300000 -0.700000 -0.300000
v 0.300000 -0.700000 -0.300000
v -0.700000 -0.700000 -1.800000
v -0.700000 0.700000 -1.800000
v 0.652941 -0.700000 -1.800000
v 0.700000 0.700000 -1.800000
v 0.700000 -0.700000 -1.800000
vn 0.8402 -0.4851 -0.2425
vn -0.0000 0.9701 -0.2425
vn -0.8402 -0.4851 -0.2425
vn -0.0000 -0.0000 1.0000
vn -1.0000 0.0000 0.0000
vn -0.0000 0.0000 -1.0000
vn 1.0000 0.0000 0.0000
vn 0.0000 -1.0000 0.0000
vn 0.0000 1.0000 0.0000
usemtl Material
s off
f 1//1 3//1 2//1
f 2//2 3//2 4//2
f 4//3 3//3 1//3
f 1//4 2//4 20//4 21//4 19//4 17//4 18//4 4//4
f 5//5 13//5 15//5 6//5
f 6//6 15//6 16//6 8//6
f 8//7 16//7 14//7 7//7
f 7//4 14//4 13//4 5//4
f 6//8 8//8 7//8 5//8
f 9//4 11//4 12//4 10//4
f 10//5 12//5 18//5 17//5
f 10//8 13//8 14//8 16//8 19//8 21//8 9//8
f 21//7 20//7 11//7 9//7
f 17//8 19//8 16//8 15//8 13//8 10//8
f 4//4 18//4 20//4 2//4
f 20//9 18//9 12//9 11//9
