# Blender v2.77 (sub 0) OBJ File: 'container_1.blend'
# www.blender.org
mtllib container_1.mtl
o Cube
v 1.800000 -1.000000 -1.800000
v 1.800000 -1.000000 1.800000
v -1.800000 -1.000000 1.800000
v -1.799999 -1.000000 -1.800001
v 1.000000 1.000000 -0.999999
v -1.000000 1.000000 -1.000000
v 0.999999 1.000000 1.000001
v -1.000000 1.000000 1.000000
v -0.700000 1.000000 0.700000
v -0.700000 1.000000 -0.700000
v 0.700000 1.000000 -0.700000
v 0.700000 1.000000 0.700000
v -0.700000 -0.700000 0.700000
v -0.700000 -0.700000 -0.700000
v 0.700000 -0.700000 -0.700000
v 0.700000 -0.700000 0.700000
vn 0.0000 -1.0000 0.0000
vn 0.0000 0.3714 -0.9285
vn 0.9285 0.3714 0.0000
vn -0.0000 0.3714 0.9285
vn -0.9285 0.3714 -0.0000
vn 0.0000 1.0000 0.0000
vn 1.0000 0.0000 0.0000
vn 0.0000 0.0000 1.0000
vn 0.0000 0.0000 -1.0000
vn -1.0000 0.0000 0.0000
usemtl Material
s off
f 1//1 2//1 3//1 4//1
f 5//2 1//2 4//2 6//2
f 1//3 5//3 7//3 2//3
f 2//4 7//4 8//4 3//4
f 3//5 8//5 6//5 4//5
f 5//6 6//6 8//6 9//6 10//6 11//6
f 5//6 11//6 12//6 9//6 8//6 7//6
f 10//7 9//7 13//7 14//7
f 11//8 10//8 14//8 15//8
f 13//6 16//6 15//6 14//6
f 9//9 12//9 16//9 13//9
f 12//10 11//10 15//10 16//10
