# Blender v2.78 (sub 0) OBJ File: 'cube_door_1.blend'
# www.blender.org
mtllib cube_door_1.mtl
o Cube
v -1.200000 -0.800000 0.800000
v -1.200000 0.800000 0.800000
v -1.200000 -0.800000 -0.800000
v -1.200000 0.800000 -0.800000
v 1.200000 -0.800000 0.800000
v 1.200000 0.800000 0.800000
v 1.200000 -0.800000 -0.800000
v 1.200000 0.800000 -0.800000
v -0.800000 -1.200000 0.800000
v -0.800000 1.200000 0.800000
v -0.800000 -1.200000 -0.800000
v -0.800000 1.200000 -0.800000
v 0.800000 -1.200000 0.800000
v 0.800000 1.200000 0.800000
v 0.800000 -1.200000 -0.800000
v 0.800000 1.200000 -0.800000
v 1.000000 -1.000000 -1.000000
v 1.000000 -1.000000 1.000000
v -1.000000 -1.000000 1.000000
v -1.000000 -1.000000 -1.000000
v 1.000000 1.000000 -0.999999
v 0.999999 1.000000 1.000001
v -1.000000 1.000000 1.000000
v -1.000000 1.000000 -1.000000
v -0.800000 -1.000000 0.800000
v -0.800000 1.000000 0.800000
v 0.800000 -1.000000 0.800000
v 0.800000 1.000000 0.800000
v -0.800000 -1.000000 -0.800000
v -0.800000 1.000000 -0.800000
v 0.800000 -1.000000 -0.800000
v 0.800000 1.000000 -0.800000
v 1.000000 -0.800000 0.800000
v -1.000000 -0.800000 0.800000
v 1.000000 -0.800000 -0.800000
v -1.000000 -0.800000 -0.800000
v -1.000000 0.666667 0.800000
v 1.000000 0.800000 -0.800000
v 1.000000 0.666667 -0.800000
v -1.000000 0.800000 -0.800000
v 1.000000 0.800000 0.800000
v -1.000000 0.800000 0.800000
vn -1.0000 0.0000 0.0000
vn 0.0000 0.0000 -1.0000
vn 1.0000 0.0000 0.0000
vn 0.0000 0.0000 1.0000
vn 0.0000 -1.0000 0.0000
vn 0.0000 1.0000 -0.0000
usemtl Material
s off
f 1//1 2//1 4//1 3//1
f 3//2 4//2 40//2 36//2
f 7//3 8//3 6//3 5//3
f 5//4 6//4 41//4 33//4
f 3//5 36//5 34//5 1//5
f 8//6 38//6 41//6 6//6
f 9//1 25//1 29//1 11//1
f 11//2 29//2 31//2 15//2
f 15//3 31//3 27//3 13//3
f 13//4 27//4 25//4 9//4
f 11//5 15//5 13//5 9//5
f 16//6 12//6 10//6 14//6
f 17//5 31//5 29//5 25//5 19//5 20//5
f 21//6 24//6 23//6 26//6 30//6 32//6
f 17//3 21//3 39//3 35//3 33//3 41//3 22//3 18//3
f 18//4 22//4 23//4 19//4
f 19//1 23//1 37//1 34//1 36//1 40//1 24//1 20//1
f 21//2 17//2 20//2 24//2
f 28//3 32//3 16//3 14//3
f 32//2 30//2 12//2 16//2
f 30//1 26//1 10//1 12//1
f 32//6 28//6 26//6 23//6 22//6 21//6
f 19//5 25//5 27//5 31//5 17//5 18//5
f 26//4 28//4 14//4 10//4
f 35//2 39//2 38//2 8//2 7//2
f 24//1 40//1 42//1 37//1 23//1
f 33//5 35//5 7//5 5//5
f 22//3 41//3 38//3 39//3 21//3
f 42//6 40//6 4//6 2//6
f 34//4 37//4 42//4 2//4 1//4
