# Blender v2.78 (sub 0) OBJ File: 'cube_button.blend'
# www.blender.org
mtllib cube_button.mtl
o Cube
v -0.250000 -2.000000 -0.750000
v -0.250000 1.000000 -0.750000
v -0.250000 -2.000000 -1.250000
v -0.250000 1.000000 -1.250000
v 0.250000 -2.000000 -0.750000
v 0.250000 1.000000 -0.750000
v 0.250000 -2.000000 -1.250000
v 0.250000 1.000000 -1.250000
v 0.750000 -2.000000 0.250000
v 0.750000 1.000000 0.250000
v 0.750000 -2.000000 -0.250000
v 0.750000 1.000000 -0.250000
v 1.250000 -2.000000 0.250000
v 1.250000 1.000000 0.250000
v 1.250000 -2.000000 -0.250000
v 1.250000 1.000000 -0.250000
v -0.150000 -0.150000 1.000000
v -0.150000 0.150000 1.000000
v 0.150000 -0.150000 1.000000
v 0.150000 0.150000 1.000000
v -1.000000 -0.150000 0.150000
v -1.000000 0.150000 0.150000
v -1.000000 -0.150000 -0.150000
v -1.000000 0.150000 -0.150000
v 0.500000 -2.000000 -0.500000
v 0.500000 -2.000000 0.500000
v -0.500000 -2.000000 0.500000
v -0.500000 -2.000000 -0.500000
v 0.500000 2.000000 -0.499999
v 0.499999 2.000000 0.500000
v -0.500000 2.000000 0.500000
v -0.500000 2.000000 -0.500000
v -0.500000 -0.150000 0.150000
v 0.500000 -0.150000 0.150000
v -0.500000 -0.150000 -0.150000
v 0.500000 -0.150000 -0.150000
v 0.500000 -0.075000 0.150000
v -0.500000 0.150000 -0.150000
v -0.500000 -0.075000 -0.150000
v 0.500000 0.150000 -0.150000
v -0.500000 0.150000 0.150000
v 0.500000 0.150000 0.150000
v -0.150000 0.150000 -0.500000
v -0.150000 0.150000 0.500000
v -0.150000 -0.150000 -0.500000
v -0.150000 -0.150000 0.500000
v 0.150000 -0.150000 -0.500000
v 0.150000 -0.150000 0.500000
v 0.150000 0.150000 -0.500000
v 0.150000 0.150000 0.500000
v 0.750000 -0.150000 0.150000
v 0.750000 0.150000 0.150000
v 0.750000 -0.150000 -0.150000
v 0.750000 0.150000 -0.150000
v -0.150000 -0.150000 -0.750000
v -0.150000 0.150000 -0.750000
v 0.150000 0.150000 -0.750000
v 0.150000 -0.150000 -0.750000
v 0.250000 -2.000000 -0.750000
v 0.250000 1.000000 -0.750000
v 0.250000 -2.000000 -1.250000
v 0.250000 1.000000 -1.250000
v -0.250000 -2.000000 -0.750000
v -0.250000 1.000000 -0.750000
v -0.250000 -2.000000 -1.250000
v -0.250000 1.000000 -1.250000
v -0.750000 -2.000000 0.250000
v -0.750000 1.000000 0.250000
v -0.750000 -2.000000 -0.250000
v -0.750000 1.000000 -0.250000
v -1.250000 -2.000000 0.250000
v -1.250000 1.000000 0.250000
v -1.250000 -2.000000 -0.250000
v -1.250000 1.000000 -0.250000
v 0.150000 -0.150000 1.000000
v 0.150000 0.150000 1.000000
v -0.150000 -0.150000 1.000000
v -0.150000 0.150000 1.000000
v 1.000000 -0.150000 0.150000
v 1.000000 0.150000 0.150000
v 1.000000 -0.150000 -0.150000
v 1.000000 0.150000 -0.150000
v -0.500000 -2.000000 -0.500000
v -0.500000 -2.000000 0.500000
v 0.500000 -2.000000 0.500000
v 0.500000 -2.000000 -0.500000
v -0.500000 2.000000 -0.499999
v -0.499999 2.000000 0.500000
v 0.500000 2.000000 0.500000
v 0.500000 2.000000 -0.500000
v 0.500000 -0.150000 0.150000
v -0.500000 -0.150000 0.150000
v 0.500000 -0.150000 -0.150000
v -0.500000 -0.150000 -0.150000
v -0.500000 -0.075000 0.150000
v 0.500000 0.150000 -0.150000
v 0.500000 -0.075000 -0.150000
v -0.500000 0.150000 -0.150000
v 0.500000 0.150000 0.150000
v -0.500000 0.150000 0.150000
v 0.150000 0.150000 -0.500000
v 0.150000 0.150000 0.500000
v 0.150000 -0.150000 -0.500000
v 0.150000 -0.150000 0.500000
v -0.150000 -0.150000 -0.500000
v -0.150000 -0.150000 0.500000
v -0.150000 0.150000 -0.500000
v -0.150000 0.150000 0.500000
v -0.750000 -0.150000 0.150000
v -0.750000 0.150000 0.150000
v -0.750000 -0.150000 -0.150000
v -0.750000 0.150000 -0.150000
v 0.150000 -0.150000 -0.750000
v 0.150000 0.150000 -0.750000
v -0.150000 0.150000 -0.750000
v -0.150000 -0.150000 -0.750000
v -0.250000 -2.000000 0.750000
v -0.250000 1.000000 0.750000
v -0.250000 -2.000000 1.250000
v -0.250000 1.000000 1.250000
v 0.250000 -2.000000 0.750000
v 0.250000 1.000000 0.750000
v 0.250000 -2.000000 1.250000
v 0.250000 1.000000 1.250000
v 0.750000 -2.000000 -0.250000
v 0.750000 1.000000 -0.250000
v 0.750000 -2.000000 0.250000
v 0.750000 1.000000 0.250000
v 1.250000 -2.000000 -0.250000
v 1.250000 1.000000 -0.250000
v 1.250000 -2.000000 0.250000
v 1.250000 1.000000 0.250000
v -0.150000 -0.150000 -1.000000
v -0.150000 0.150000 -1.000000
v 0.150000 -0.150000 -1.000000
v 0.150000 0.150000 -1.000000
v -1.000000 -0.150000 -0.150000
v -1.000000 0.150000 -0.150000
v -1.000000 -0.150000 0.150000
v -1.000000 0.150000 0.150000
v 0.500000 -2.000000 0.500000
v 0.500000 -2.000000 -0.500000
v -0.500000 -2.000000 -0.500000
v -0.500000 -2.000000 0.500000
v 0.500000 2.000000 0.499999
v 0.499999 2.000000 -0.500000
v -0.500000 2.000000 -0.500000
v -0.500000 2.000000 0.500000
v -0.500000 -0.150000 -0.150000
v 0.500000 -0.150000 -0.150000
v -0.500000 -0.150000 0.150000
v 0.500000 -0.150000 0.150000
v 0.500000 -0.075000 -0.150000
v -0.500000 0.150000 0.150000
v -0.500000 -0.075000 0.150000
v 0.500000 0.150000 0.150000
v -0.500000 0.150000 -0.150000
v 0.500000 0.150000 -0.150000
v -0.150000 0.150000 0.500000
v -0.150000 0.150000 -0.500000
v -0.150000 -0.150000 0.500000
v -0.150000 -0.150000 -0.500000
v 0.150000 -0.150000 0.500000
v 0.150000 -0.150000 -0.500000
v 0.150000 0.150000 0.500000
v 0.150000 0.150000 -0.500000
v 0.750000 -0.150000 -0.150000
v 0.750000 0.150000 -0.150000
v 0.750000 -0.150000 0.150000
v 0.750000 0.150000 0.150000
v -0.150000 -0.150000 0.750000
v -0.150000 0.150000 0.750000
v 0.150000 0.150000 0.750000
v 0.150000 -0.150000 0.750000
v 0.250000 -2.000000 0.750000
v 0.250000 1.000000 0.750000
v 0.250000 -2.000000 1.250000
v 0.250000 1.000000 1.250000
v -0.250000 -2.000000 0.750000
v -0.250000 1.000000 0.750000
v -0.250000 -2.000000 1.250000
v -0.250000 1.000000 1.250000
v -0.750000 -2.000000 -0.250000
v -0.750000 1.000000 -0.250000
v -0.750000 -2.000000 0.250000
v -0.750000 1.000000 0.250000
v -1.250000 -2.000000 -0.250000
v -1.250000 1.000000 -0.250000
v -1.250000 -2.000000 0.250000
v -1.250000 1.000000 0.250000
v 0.150000 -0.150000 -1.000000
v 0.150000 0.150000 -1.000000
v -0.150000 -0.150000 -1.000000
v -0.150000 0.150000 -1.000000
v 1.000000 -0.150000 -0.150000
v 1.000000 0.150000 -0.150000
v 1.000000 -0.150000 0.150000
v 1.000000 0.150000 0.150000
v -0.500000 -2.000000 0.500000
v -0.500000 -2.000000 -0.500000
v 0.500000 -2.000000 -0.500000
v 0.500000 -2.000000 0.500000
v -0.500000 2.000000 0.499999
v -0.499999 2.000000 -0.500000
v 0.500000 2.000000 -0.500000
v 0.500000 2.000000 0.500000
v 0.500000 -0.150000 -0.150000
v -0.500000 -0.150000 -0.150000
v 0.500000 -0.150000 0.150000
v -0.500000 -0.150000 0.150000
v -0.500000 -0.075000 -0.150000
v 0.500000 0.150000 0.150000
v 0.500000 -0.075000 0.150000
v -0.500000 0.150000 0.150000
v 0.500000 0.150000 -0.150000
v -0.500000 0.150000 -0.150000
v 0.150000 0.150000 0.500000
v 0.150000 0.150000 -0.500000
v 0.150000 -0.150000 0.500000
v 0.150000 -0.150000 -0.500000
v -0.150000 -0.150000 0.500000
v -0.150000 -0.150000 -0.500000
v -0.150000 0.150000 0.500000
v -0.150000 0.150000 -0.500000
v -0.750000 -0.150000 -0.150000
v -0.750000 0.150000 -0.150000
v -0.750000 -0.150000 0.150000
v -0.750000 0.150000 0.150000
v 0.150000 -0.150000 0.750000
v 0.150000 0.150000 0.750000
v -0.150000 0.150000 0.750000
v -0.150000 -0.150000 0.750000
v -0.111483 2.000000 0.111483
v -0.111483 2.000000 -0.111483
v 0.111483 2.000000 0.111483
v 0.111483 2.000000 -0.111483
v -0.111483 2.508409 0.111483
v -0.111483 2.508409 -0.111483
v 0.111483 2.508409 0.111483
v 0.111483 2.508409 -0.111483
v -0.227387 2.508409 0.227387
v -0.227387 2.508409 -0.227387
v 0.227387 2.508409 0.227387
v 0.227387 2.508409 -0.227387
v -0.227387 3.508409 0.227387
v -0.227387 3.508409 -0.227387
v 0.227387 3.508409 0.227387
v 0.227387 3.508409 -0.227387
vn -1.0000 0.0000 0.0000
vn 0.0000 0.0000 -1.0000
vn 1.0000 0.0000 0.0000
vn 0.0000 0.0000 1.0000
vn 0.0000 -1.0000 0.0000
vn 0.0000 1.0000 0.0000
usemtl Material
s off
f 1//1 2//1 4//1 3//1
f 3//2 4//2 8//2 7//2
f 7//3 8//3 6//3 5//3
f 5//4 6//4 58//4 55//4 56//4 2//4 1//4
f 3//5 7//5 5//5 1//5
f 8//6 4//6 2//6 6//6
f 9//1 10//1 52//1 51//1 53//1 12//1 11//1
f 11//2 12//2 16//2 15//2
f 15//3 16//3 14//3 13//3
f 13//4 14//4 10//4 9//4
f 11//5 15//5 13//5 9//5
f 16//6 12//6 10//6 14//6
f 17//1 18//1 44//1 46//1
f 19//4 20//4 18//4 17//4
f 21//1 22//1 24//1 23//1
f 23//2 24//2 38//2 39//2 35//2
f 23//5 35//5 33//5 21//5
f 25//5 26//5 27//5 28//5
f 29//6 32//6 31//6 30//6
f 25//3 29//3 40//3 36//3 34//3 37//3 26//3
f 26//4 30//4 50//4 48//4 46//4 27//4
f 27//1 31//1 41//1 33//1 35//1 39//1 28//1
f 29//2 25//2 47//2 49//2 43//2 32//2
f 36//2 40//2 54//2 53//2
f 26//3 37//3 42//3 40//3 29//3 30//3
f 34//5 36//5 53//5 51//5
f 41//6 38//6 24//6 22//6
f 28//1 39//1 38//1 41//1 31//1 32//1
f 33//4 41//4 22//4 21//4
f 48//3 50//3 20//3 19//3
f 45//1 43//1 56//1 55//1
f 27//4 46//4 44//4 50//4 30//4 31//4
f 46//5 48//5 19//5 17//5
f 32//2 43//2 45//2 47//2 25//2 28//2
f 50//6 44//6 18//6 20//6
f 12//1 53//1 54//1 52//1 10//1
f 51//4 52//4 42//4 37//4 34//4
f 52//6 54//6 40//6 42//6
f 55//5 58//5 47//5 45//5
f 58//3 57//3 49//3 47//3
f 2//4 56//4 57//4 58//4 6//4
f 57//6 56//6 43//6 49//6
f 59//3 61//3 62//3 60//3
f 61//2 65//2 66//2 62//2
f 65//1 63//1 64//1 66//1
f 63//4 59//4 60//4 114//4 113//4 116//4 64//4
f 61//5 59//5 63//5 65//5
f 66//6 64//6 60//6 62//6
f 67//3 69//3 70//3 111//3 109//3 110//3 68//3
f 69//2 73//2 74//2 70//2
f 73//1 71//1 72//1 74//1
f 71//4 67//4 68//4 72//4
f 69//5 67//5 71//5 73//5
f 74//6 72//6 68//6 70//6
f 75//3 104//3 102//3 76//3
f 77//4 75//4 76//4 78//4
f 79//3 81//3 82//3 80//3
f 81//2 93//2 97//2 96//2 82//2
f 81//5 79//5 91//5 93//5
f 83//5 86//5 85//5 84//5
f 87//6 88//6 89//6 90//6
f 83//1 84//1 95//1 92//1 94//1 98//1 87//1
f 84//4 85//4 104//4 106//4 108//4 88//4
f 85//3 86//3 97//3 93//3 91//3 99//3 89//3
f 87//2 90//2 101//2 107//2 105//2 83//2
f 94//2 111//2 112//2 98//2
f 84//1 88//1 87//1 98//1 100//1 95//1
f 92//5 109//5 111//5 94//5
f 99//6 80//6 82//6 96//6
f 86//3 90//3 89//3 99//3 96//3 97//3
f 91//4 79//4 80//4 99//4
f 106//1 77//1 78//1 108//1
f 103//3 113//3 114//3 101//3
f 85//4 89//4 88//4 108//4 102//4 104//4
f 104//5 75//5 77//5 106//5
f 90//2 86//2 83//2 105//2 103//2 101//2
f 108//6 78//6 76//6 102//6
f 70//3 68//3 110//3 112//3 111//3
f 109//4 92//4 95//4 100//4 110//4
f 110//6 100//6 98//6 112//6
f 113//5 103//5 105//5 116//5
f 116//1 105//1 107//1 115//1
f 60//4 64//4 116//4 115//4 114//4
f 115//6 107//6 101//6 114//6
f 117//1 119//1 120//1 118//1
f 119//4 123//4 124//4 120//4
f 123//3 121//3 122//3 124//3
f 121//2 117//2 118//2 172//2 171//2 174//2 122//2
f 119//5 117//5 121//5 123//5
f 124//6 122//6 118//6 120//6
f 125//1 127//1 128//1 169//1 167//1 168//1 126//1
f 127//4 131//4 132//4 128//4
f 131//3 129//3 130//3 132//3
f 129//2 125//2 126//2 130//2
f 127//5 125//5 129//5 131//5
f 132//6 130//6 126//6 128//6
f 133//1 162//1 160//1 134//1
f 135//2 133//2 134//2 136//2
f 137//1 139//1 140//1 138//1
f 139//4 151//4 155//4 154//4 140//4
f 139//5 137//5 149//5 151//5
f 141//5 144//5 143//5 142//5
f 145//6 146//6 147//6 148//6
f 141//3 142//3 153//3 150//3 152//3 156//3 145//3
f 142//2 143//2 162//2 164//2 166//2 146//2
f 143//1 144//1 155//1 151//1 149//1 157//1 147//1
f 145//4 148//4 159//4 165//4 163//4 141//4
f 152//4 169//4 170//4 156//4
f 142//3 146//3 145//3 156//3 158//3 153//3
f 150//5 167//5 169//5 152//5
f 157//6 138//6 140//6 154//6
f 144//1 148//1 147//1 157//1 154//1 155//1
f 149//2 137//2 138//2 157//2
f 164//3 135//3 136//3 166//3
f 161//1 171//1 172//1 159//1
f 143//2 147//2 146//2 166//2 160//2 162//2
f 162//5 133//5 135//5 164//5
f 148//4 144//4 141//4 163//4 161//4 159//4
f 166//6 136//6 134//6 160//6
f 128//1 126//1 168//1 170//1 169//1
f 167//2 150//2 153//2 158//2 168//2
f 168//6 158//6 156//6 170//6
f 171//5 161//5 163//5 174//5
f 174//3 163//3 165//3 173//3
f 118//2 122//2 174//2 173//2 172//2
f 173//6 165//6 159//6 172//6
f 175//3 176//3 178//3 177//3
f 177//4 178//4 182//4 181//4
f 181//1 182//1 180//1 179//1
f 179//2 180//2 232//2 229//2 230//2 176//2 175//2
f 177//5 181//5 179//5 175//5
f 182//6 178//6 176//6 180//6
f 183//3 184//3 226//3 225//3 227//3 186//3 185//3
f 185//4 186//4 190//4 189//4
f 189//1 190//1 188//1 187//1
f 187//2 188//2 184//2 183//2
f 185//5 189//5 187//5 183//5
f 190//6 186//6 184//6 188//6
f 191//3 192//3 218//3 220//3
f 193//2 194//2 192//2 191//2
f 195//3 196//3 198//3 197//3
f 197//4 198//4 212//4 213//4 209//4
f 197//5 209//5 207//5 195//5
f 199//5 200//5 201//5 202//5
f 205//6 204//6 234//6 236//6
f 199//1 203//1 214//1 210//1 208//1 211//1 200//1
f 200//2 204//2 224//2 222//2 220//2 201//2
f 201//3 205//3 215//3 207//3 209//3 213//3 202//3
f 203//4 199//4 221//4 223//4 217//4 206//4
f 210//4 214//4 228//4 227//4
f 200//1 211//1 216//1 214//1 203//1 204//1
f 208//5 210//5 227//5 225//5
f 215//6 212//6 198//6 196//6
f 202//3 213//3 212//3 215//3 205//3 206//3
f 207//2 215//2 196//2 195//2
f 222//1 224//1 194//1 193//1
f 219//3 217//3 230//3 229//3
f 201//2 220//2 218//2 224//2 204//2 205//2
f 220//5 222//5 193//5 191//5
f 206//4 217//4 219//4 221//4 199//4 202//4
f 224//6 218//6 192//6 194//6
f 186//3 227//3 228//3 226//3 184//3
f 225//2 226//2 216//2 211//2 208//2
f 226//6 228//6 214//6 216//6
f 229//5 232//5 221//5 219//5
f 232//1 231//1 223//1 221//1
f 176//2 230//2 231//2 232//2 180//2
f 231//6 230//6 217//6 223//6
f 235//3 236//3 240//3 239//3
f 204//6 203//6 233//6 234//6
f 206//6 205//6 236//6 235//6
f 203//6 206//6 235//6 233//6
f 240//5 238//5 242//5 244//5
f 233//4 235//4 239//4 237//4
f 236//2 234//2 238//2 240//2
f 234//1 233//1 237//1 238//1
f 244//2 242//2 246//2 248//2
f 238//5 237//5 241//5 242//5
f 239//5 240//5 244//5 243//5
f 237//5 239//5 243//5 241//5
f 245//6 247//6 248//6 246//6
f 242//1 241//1 245//1 246//1
f 243//3 244//3 248//3 247//3
f 241//4 243//4 247//4 245//4
