# Blender v2.78 (sub 0) OBJ File: 'gate_half.blend'
# www.blender.org
mtllib gate_half.mtl
o Cube
v -0.300000 -2.000000 0.300000
v -0.300000 2.000000 0.300000
v -0.300000 -2.000000 -0.300000
v -0.300000 2.000000 -0.300000
v 0.300000 -2.000000 0.300000
v 0.300000 2.000000 0.300000
v 0.300000 -2.000000 -0.300000
v 0.300000 2.000000 -0.300000
v -1.800000 -0.300000 0.300000
v -1.800000 0.300000 0.300000
v -1.800000 -0.300000 -0.300000
v -1.800000 0.300000 -0.300000
v -1.200000 -0.300000 0.300000
v -1.200000 0.300000 0.300000
v -1.200000 -0.300000 -0.300000
v -1.200000 0.300000 -0.300000
v -7.000000 1.500000 0.500000
v -7.000000 2.500000 0.500000
v -7.000000 1.500000 -0.500000
v -7.000000 2.500000 -0.500000
v -1.000000 1.500000 0.500000
v -1.000000 2.500000 0.500000
v -1.000000 1.500000 -0.500000
v -1.000000 2.500000 -0.500000
v -4.400000 -8.000000 0.400000
v -4.400000 -8.000000 -0.400000
v -3.600000 -8.000000 0.400000
v -3.600000 -8.000000 -0.400000
v -5.300000 -0.700000 0.700000
v -5.300000 0.700000 0.700000
v -5.300000 -0.700000 -0.700000
v -5.300000 0.700000 -0.700000
v -2.700000 -0.700000 0.700000
v -2.700000 0.700000 0.700000
v -2.700000 -0.700000 -0.700000
v -2.700000 0.700000 -0.700000
v -4.700000 -0.700000 1.300000
v -4.700000 0.700000 1.300000
v -4.700000 -0.700000 -1.300000
v -4.700000 0.700000 -1.300000
v -3.300000 -0.700000 1.300000
v -3.300000 0.700000 1.300000
v -3.300000 -0.700000 -1.300000
v -3.300000 0.700000 -1.300000
v -3.000000 -1.000000 -1.000000
v -3.000000 -1.000000 1.000000
v -5.000000 -1.000000 1.000000
v -5.000000 -1.000000 -1.000000
v -3.000000 1.000000 -0.999999
v -3.000001 1.000000 1.000001
v -5.000000 1.000000 1.000000
v -5.000000 1.000000 -1.000000
v -4.700000 0.700000 -1.000000
v -4.700000 0.700000 1.000000
v -4.700000 -0.700000 -1.000000
v -4.700000 -0.700000 1.000000
v -3.300000 -0.700000 -1.000000
v -3.300000 -0.700000 1.000000
v -3.300000 0.700000 -1.000000
v -3.300000 0.700000 1.000000
v -5.000000 -0.700000 0.700000
v -3.000000 -0.700000 0.700000
v -5.000000 -0.700000 -0.700000
v -3.000000 -0.700000 -0.700000
v -5.000000 0.538462 0.700000
v -5.000000 0.700000 -0.700000
v -3.000000 0.700000 -0.700000
v -3.000000 0.538462 -0.700000
v -3.000001 0.700000 0.700000
v -5.000000 0.700000 0.700000
v -4.400000 -1.000000 0.400000
v -3.600000 -1.000000 0.400000
v -4.400000 -1.000000 -0.400000
v -3.600000 -1.000000 -0.400000
v -4.100000 1.000000 0.100000
v -3.900000 1.000000 0.100000
v -4.100000 1.000000 -0.100000
v -3.900000 1.000000 -0.100000
v -4.100000 1.500000 0.100000
v -4.100000 1.500000 0.000000
v -3.900000 1.500000 0.100000
v -3.900000 1.500000 -0.100000
v -4.100000 1.500000 -0.100000
v -2.700000 -0.100000 0.100000
v -2.700000 -0.100000 -0.100000
v -2.700000 0.035000 0.100000
v -2.700000 0.100000 -0.100000
v -2.700000 0.100000 0.100000
v -1.800000 0.100000 0.100000
v -1.800000 0.100000 -0.100000
v -1.800000 -0.100000 0.100000
v -1.800000 -0.100000 -0.100000
v -1.200000 0.100000 0.100000
v -1.200000 -0.100000 0.100000
v -1.200000 0.071111 0.100000
v -1.200000 -0.100000 -0.100000
v -1.200000 0.100000 -0.100000
v -0.300000 -0.100000 0.100000
v -0.300000 0.100000 0.100000
v -0.300000 0.092778 0.100000
v -0.300000 0.100000 -0.100000
v -0.300000 0.050000 -0.100000
v -0.300000 -0.100000 -0.100000
vn -1.0000 -0.0000 0.0000
vn 0.0000 0.0000 -1.0000
vn 1.0000 0.0000 0.0000
vn 0.0000 0.0000 1.0000
vn 0.0000 -1.0000 0.0000
vn 0.0000 1.0000 0.0000
usemtl Material
s off
f 1//1 2//1 100//1 98//1 103//1 102//1 4//1 3//1
f 3//2 4//2 8//2 7//2
f 7//3 8//3 6//3 5//3
f 5//4 6//4 2//4 1//4
f 3//5 7//5 5//5 1//5
f 8//6 4//6 2//6 6//6
f 9//1 10//1 89//1 91//1 92//1 11//1
f 11//2 12//2 16//2 15//2
f 15//3 16//3 97//3 96//3 94//3 95//3 14//3 13//3
f 13//4 14//4 10//4 9//4
f 11//5 15//5 13//5 9//5
f 16//6 12//6 10//6 14//6
f 17//1 18//1 20//1 19//1
f 19//2 20//2 24//2 23//2
f 23//3 24//3 22//3 21//3
f 21//4 22//4 18//4 17//4
f 19//5 23//5 82//5 83//5 80//5
f 24//6 20//6 18//6 22//6
f 25//1 71//1 73//1 26//1
f 26//2 73//2 74//2 28//2
f 28//3 74//3 72//3 27//3
f 27//4 72//4 71//4 25//4
f 26//5 28//5 27//5 25//5
f 29//1 30//1 32//1 31//1
f 31//2 32//2 66//2 63//2
f 35//3 36//3 87//3 85//3 84//3 86//3 34//3 33//3
f 33//4 34//4 69//4 62//4
f 31//5 63//5 61//5 29//5
f 36//6 67//6 69//6 34//6
f 37//1 38//1 54//1 56//1
f 39//2 40//2 44//2 43//2
f 43//3 44//3 59//3 57//3
f 41//4 42//4 38//4 37//4
f 39//5 43//5 57//5 55//5
f 44//6 40//6 53//6 59//6
f 45//5 74//5 73//5 71//5 47//5 48//5
f 49//6 52//6 51//6 75//6 77//6 78//6
f 45//3 49//3 68//3 64//3 62//3 69//3 50//3 46//3
f 46//4 50//4 60//4 58//4 56//4 54//4 51//4 47//4
f 47//1 51//1 65//1 61//1 63//1 66//1 52//1 48//1
f 49//2 59//2 53//2 55//2 48//2 52//2
f 58//3 60//3 42//3 41//3
f 48//2 55//2 57//2 59//2 49//2 45//2
f 55//1 53//1 40//1 39//1
f 51//4 54//4 60//4 50//4
f 56//5 58//5 41//5 37//5
f 60//6 54//6 38//6 42//6
f 64//2 68//2 67//2 36//2 35//2
f 52//1 66//1 70//1 65//1 51//1
f 62//5 64//5 35//5 33//5
f 50//3 69//3 67//3 68//3 49//3
f 70//6 66//6 32//6 30//6
f 61//4 65//4 70//4 30//4 29//4
f 47//5 71//5 72//5 74//5 45//5 46//5
f 76//3 78//3 82//3 81//3
f 78//6 76//6 75//6 51//6 50//6 49//6
f 78//2 77//2 83//2 82//2
f 77//1 75//1 79//1 80//1 83//1
f 75//4 76//4 81//4 79//4
f 79//5 81//5 82//5 23//5 21//5 17//5 19//5 80//5
f 34//3 86//3 88//3 87//3 36//3
f 85//2 87//2 90//2 92//2
f 84//5 85//5 92//5 91//5
f 14//3 95//3 93//3 97//3 16//3
f 11//1 92//1 90//1 89//1 10//1 12//1
f 91//4 89//4 88//4 86//4 84//4
f 94//5 96//5 103//5 98//5
f 96//2 97//2 101//2 102//2 103//2
f 89//6 90//6 87//6 88//6
f 4//1 102//1 101//1 99//1 100//1 2//1
f 99//6 101//6 97//6 93//6
f 98//4 100//4 99//4 93//4 95//4 94//4
