# Blender v2.78 (sub 0) OBJ File: 'gate_mirrored.blend'
# www.blender.org
mtllib gate_mirrored.mtl
o Cube
v -0.300000 -2.000000 0.300000
v -0.300000 2.000000 0.300000
v -0.300000 -2.000000 -0.300000
v -0.300000 2.000000 -0.300000
v 0.300000 -2.000000 0.300000
v 0.300000 2.000000 0.300000
v 0.300000 -2.000000 -0.300000
v 0.300000 2.000000 -0.300000
v -1.800000 -0.300000 0.300000
v -1.800000 0.300000 0.300000
v -1.800000 -0.300000 -0.300000
v -1.800000 0.300000 -0.300000
v -1.200000 -0.300000 0.300000
v -1.200000 0.300000 0.300000
v -1.200000 -0.300000 -0.300000
v -1.200000 0.300000 -0.300000
v -7.000000 1.500000 0.500000
v -7.000000 2.500000 0.500000
v -7.000000 1.500000 -0.500000
v -7.000000 2.500000 -0.500000
v -1.000000 1.500000 0.500000
v -1.000000 2.500000 0.500000
v -1.000000 1.500000 -0.500000
v -1.000000 2.500000 -0.500000
v -4.400000 -8.000000 0.400000
v -4.400000 -8.000000 -0.400000
v -3.600000 -8.000000 0.400000
v -3.600000 -8.000000 -0.400000
v -5.300000 -0.700000 0.700000
v -5.300000 0.700000 0.700000
v -5.300000 -0.700000 -0.700000
v -5.300000 0.700000 -0.700000
v -2.700000 -0.700000 0.700000
v -2.700000 0.700000 0.700000
v -2.700000 -0.700000 -0.700000
v -2.700000 0.700000 -0.700000
v -4.700000 -0.700000 1.300000
v -4.700000 0.700000 1.300000
v -4.700000 -0.700000 -1.300000
v -4.700000 0.700000 -1.300000
v -3.300000 -0.700000 1.300000
v -3.300000 0.700000 1.300000
v -3.300000 -0.700000 -1.300000
v -3.300000 0.700000 -1.300000
v -3.000000 -1.000000 -1.000000
v -3.000000 -1.000000 1.000000
v -5.000000 -1.000000 1.000000
v -5.000000 -1.000000 -1.000000
v -3.000000 1.000000 -0.999999
v -3.000001 1.000000 1.000001
v -5.000000 1.000000 1.000000
v -5.000000 1.000000 -1.000000
v -4.700000 0.700000 -1.000000
v -4.700000 0.700000 1.000000
v -4.700000 -0.700000 -1.000000
v -4.700000 -0.700000 1.000000
v -3.300000 -0.700000 -1.000000
v -3.300000 -0.700000 1.000000
v -3.300000 0.700000 -1.000000
v -3.300000 0.700000 1.000000
v -5.000000 -0.700000 0.700000
v -3.000000 -0.700000 0.700000
v -5.000000 -0.700000 -0.700000
v -3.000000 -0.700000 -0.700000
v -5.000000 0.538462 0.700000
v -5.000000 0.700000 -0.700000
v -3.000000 0.700000 -0.700000
v -3.000000 0.538462 -0.700000
v -3.000001 0.700000 0.700000
v -5.000000 0.700000 0.700000
v -4.400000 -1.000000 0.400000
v -3.600000 -1.000000 0.400000
v -4.400000 -1.000000 -0.400000
v -3.600000 -1.000000 -0.400000
v -4.100000 1.000000 0.100000
v -3.900000 1.000000 0.100000
v -4.100000 1.000000 -0.100000
v -3.900000 1.000000 -0.100000
v -4.100000 1.500000 0.100000
v -4.100000 1.500000 0.000000
v -3.900000 1.500000 0.100000
v -3.900000 1.500000 -0.100000
v -4.100000 1.500000 -0.100000
v -2.700000 -0.100000 0.100000
v -2.700000 -0.100000 -0.100000
v -2.700000 0.035000 0.100000
v -2.700000 0.100000 -0.100000
v -2.700000 0.100000 0.100000
v -1.800000 0.100000 0.100000
v -1.800000 0.100000 -0.100000
v -1.800000 -0.100000 0.100000
v -1.800000 -0.100000 -0.100000
v -1.200000 0.100000 0.100000
v -1.200000 -0.100000 0.100000
v -1.200000 0.071111 0.100000
v -1.200000 -0.100000 -0.100000
v -1.200000 0.100000 -0.100000
v -0.300000 -0.100000 0.100000
v -0.300000 0.100000 0.100000
v -0.300000 0.092778 0.100000
v -0.300000 0.100000 -0.100000
v -0.300000 0.050000 -0.100000
v -0.300000 -0.100000 -0.100000
v -7.700000 -2.000000 0.300000
v -7.700000 2.000000 0.300000
v -7.700000 -2.000000 -0.300000
v -7.700000 2.000000 -0.300000
v -8.300000 -2.000000 0.300000
v -8.300000 2.000000 0.300000
v -8.300000 -2.000000 -0.300000
v -8.300000 2.000000 -0.300000
v -6.200000 -0.300000 0.300000
v -6.200000 0.300000 0.300000
v -6.200000 -0.300000 -0.300000
v -6.200000 0.300000 -0.300000
v -6.800000 -0.300000 0.300000
v -6.800000 0.300000 0.300000
v -6.800000 -0.300000 -0.300000
v -6.800000 0.300000 -0.300000
v -1.000000 1.500000 0.500000
v -1.000000 2.500000 0.500000
v -1.000000 1.500000 -0.500000
v -1.000000 2.500000 -0.500000
v -7.000000 1.500000 0.500000
v -7.000000 2.500000 0.500000
v -7.000000 1.500000 -0.500000
v -7.000000 2.500000 -0.500000
v -3.600000 -8.000000 0.400000
v -3.600000 -8.000000 -0.400000
v -4.400000 -8.000000 0.400000
v -4.400000 -8.000000 -0.400000
v -2.700000 -0.700000 0.700000
v -2.700000 0.700000 0.700000
v -2.700000 -0.700000 -0.700000
v -2.700000 0.700000 -0.700000
v -5.300000 -0.700000 0.700000
v -5.300000 0.700000 0.700000
v -5.300000 -0.700000 -0.700000
v -5.300000 0.700000 -0.700000
v -3.300000 -0.700000 1.300000
v -3.300000 0.700000 1.300000
v -3.300000 -0.700000 -1.300000
v -3.300000 0.700000 -1.300000
v -4.700000 -0.700000 1.300000
v -4.700000 0.700000 1.300000
v -4.700000 -0.700000 -1.300000
v -4.700000 0.700000 -1.300000
v -5.000000 -1.000000 -1.000000
v -5.000000 -1.000000 1.000000
v -3.000000 -1.000000 1.000000
v -3.000000 -1.000000 -1.000000
v -5.000000 1.000000 -0.999999
v -5.000000 1.000000 1.000001
v -3.000000 1.000000 1.000000
v -3.000000 1.000000 -1.000000
v -3.300000 0.700000 -1.000000
v -3.300000 0.700000 1.000000
v -3.300000 -0.700000 -1.000000
v -3.300000 -0.700000 1.000000
v -4.700000 -0.700000 -1.000000
v -4.700000 -0.700000 1.000000
v -4.700000 0.700000 -1.000000
v -4.700000 0.700000 1.000000
v -3.000000 -0.700000 0.700000
v -5.000000 -0.700000 0.700000
v -3.000000 -0.700000 -0.700000
v -5.000000 -0.700000 -0.700000
v -3.000000 0.538462 0.700000
v -3.000000 0.700000 -0.700000
v -5.000000 0.700000 -0.700000
v -5.000000 0.538462 -0.700000
v -4.999999 0.700000 0.700000
v -3.000000 0.700000 0.700000
v -3.600000 -1.000000 0.400000
v -4.400000 -1.000000 0.400000
v -3.600000 -1.000000 -0.400000
v -4.400000 -1.000000 -0.400000
v -3.900000 1.000000 0.100000
v -4.100000 1.000000 0.100000
v -3.900000 1.000000 -0.100000
v -4.100000 1.000000 -0.100000
v -3.900000 1.500000 0.100000
v -3.900000 1.500000 0.000000
v -4.100000 1.500000 0.100000
v -4.100000 1.500000 -0.100000
v -3.900000 1.500000 -0.100000
v -5.300000 -0.100000 0.100000
v -5.300000 -0.100000 -0.100000
v -5.300000 0.035000 0.100000
v -5.300000 0.100000 -0.100000
v -5.300000 0.100000 0.100000
v -6.200000 0.100000 0.100000
v -6.200000 0.100000 -0.100000
v -6.200000 -0.100000 0.100000
v -6.200000 -0.100000 -0.100000
v -6.800000 0.100000 0.100000
v -6.800000 -0.100000 0.100000
v -6.800000 0.071111 0.100000
v -6.800000 -0.100000 -0.100000
v -6.800000 0.100000 -0.100000
v -7.700000 -0.100000 0.100000
v -7.700000 0.100000 0.100000
v -7.700000 0.092778 0.100000
v -7.700000 0.100000 -0.100000
v -7.700000 0.050000 -0.100000
v -7.700000 -0.100000 -0.100000
vn -1.0000 -0.0000 0.0000
vn 0.0000 0.0000 -1.0000
vn 1.0000 0.0000 0.0000
vn 0.0000 0.0000 1.0000
vn 0.0000 -1.0000 0.0000
vn 0.0000 1.0000 0.0000
usemtl Material
s off
f 1//1 2//1 100//1 98//1 103//1 102//1 4//1 3//1
f 3//2 4//2 8//2 7//2
f 7//3 8//3 6//3 5//3
f 5//4 6//4 2//4 1//4
f 3//5 7//5 5//5 1//5
f 8//6 4//6 2//6 6//6
f 9//1 10//1 89//1 91//1 92//1 11//1
f 11//2 12//2 16//2 15//2
f 15//3 16//3 97//3 96//3 94//3 95//3 14//3 13//3
f 13//4 14//4 10//4 9//4
f 11//5 15//5 13//5 9//5
f 16//6 12//6 10//6 14//6
f 17//1 18//1 20//1 19//1
f 19//2 20//2 24//2 23//2
f 23//3 24//3 22//3 21//3
f 21//4 22//4 18//4 17//4
f 19//5 23//5 82//5 83//5 80//5
f 24//6 20//6 18//6 22//6
f 25//1 71//1 73//1 26//1
f 26//2 73//2 74//2 28//2
f 28//3 74//3 72//3 27//3
f 27//4 72//4 71//4 25//4
f 26//5 28//5 27//5 25//5
f 29//1 30//1 32//1 31//1
f 31//2 32//2 66//2 63//2
f 35//3 36//3 87//3 85//3 84//3 86//3 34//3 33//3
f 33//4 34//4 69//4 62//4
f 31//5 63//5 61//5 29//5
f 36//6 67//6 69//6 34//6
f 37//1 38//1 54//1 56//1
f 39//2 40//2 44//2 43//2
f 43//3 44//3 59//3 57//3
f 41//4 42//4 38//4 37//4
f 39//5 43//5 57//5 55//5
f 44//6 40//6 53//6 59//6
f 45//5 74//5 73//5 71//5 47//5 48//5
f 49//6 52//6 51//6 75//6 77//6 78//6
f 45//3 49//3 68//3 64//3 62//3 69//3 50//3 46//3
f 46//4 50//4 60//4 58//4 56//4 54//4 51//4 47//4
f 47//1 51//1 65//1 61//1 63//1 66//1 52//1 48//1
f 49//2 59//2 53//2 55//2 48//2 52//2
f 58//3 60//3 42//3 41//3
f 48//2 55//2 57//2 59//2 49//2 45//2
f 55//1 53//1 40//1 39//1
f 51//4 54//4 60//4 50//4
f 56//5 58//5 41//5 37//5
f 60//6 54//6 38//6 42//6
f 64//2 68//2 67//2 36//2 35//2
f 52//1 66//1 70//1 65//1 51//1
f 62//5 64//5 35//5 33//5
f 50//3 69//3 67//3 68//3 49//3
f 70//6 66//6 32//6 30//6
f 61//4 65//4 70//4 30//4 29//4
f 47//5 71//5 72//5 74//5 45//5 46//5
f 76//3 78//3 82//3 81//3
f 78//6 76//6 75//6 51//6 50//6 49//6
f 78//2 77//2 83//2 82//2
f 77//1 75//1 79//1 80//1 83//1
f 75//4 76//4 81//4 79//4
f 79//5 81//5 82//5 23//5 21//5 17//5 19//5 80//5
f 34//3 86//3 88//3 87//3 36//3
f 85//2 87//2 90//2 92//2
f 84//5 85//5 92//5 91//5
f 14//3 95//3 93//3 97//3 16//3
f 11//1 92//1 90//1 89//1 10//1 12//1
f 91//4 89//4 88//4 86//4 84//4
f 94//5 96//5 103//5 98//5
f 96//2 97//2 101//2 102//2 103//2
f 89//6 90//6 87//6 88//6
f 4//1 102//1 101//1 99//1 100//1 2//1
f 99//6 101//6 97//6 93//6
f 98//4 100//4 99//4 93//4 95//4 94//4
f 104//3 106//3 107//3 205//3 206//3 201//3 203//3 105//3
f 106//2 110//2 111//2 107//2
f 110//1 108//1 109//1 111//1
f 108//4 104//4 105//4 109//4
f 106//5 104//5 108//5 110//5
f 111//6 109//6 105//6 107//6
f 112//3 114//3 195//3 194//3 192//3 113//3
f 114//2 118//2 119//2 115//2
f 118//1 116//1 117//1 198//1 197//1 199//1 200//1 119//1
f 116//4 112//4 113//4 117//4
f 114//5 112//5 116//5 118//5
f 119//6 117//6 113//6 115//6
f 120//3 122//3 123//3 121//3
f 122//2 126//2 127//2 123//2
f 126//1 124//1 125//1 127//1
f 124//4 120//4 121//4 125//4
f 122//5 183//5 186//5 185//5 126//5
f 127//6 125//6 121//6 123//6
f 128//3 129//3 176//3 174//3
f 129//2 131//2 177//2 176//2
f 131//1 130//1 175//1 177//1
f 130//4 128//4 174//4 175//4
f 129//5 128//5 130//5 131//5
f 132//3 134//3 135//3 133//3
f 134//2 166//2 169//2 135//2
f 138//1 136//1 137//1 189//1 187//1 188//1 190//1 139//1
f 136//4 165//4 172//4 137//4
f 134//5 132//5 164//5 166//5
f 139//6 137//6 172//6 170//6
f 140//3 159//3 157//3 141//3
f 142//2 146//2 147//2 143//2
f 146//1 160//1 162//1 147//1
f 144//4 140//4 141//4 145//4
f 142//5 158//5 160//5 146//5
f 147//6 162//6 156//6 143//6
f 148//5 151//5 150//5 174//5 176//5 177//5
f 152//6 181//6 180//6 178//6 154//6 155//6
f 148//1 149//1 153//1 172//1 165//1 167//1 171//1 152//1
f 149//4 150//4 154//4 157//4 159//4 161//4 163//4 153//4
f 150//3 151//3 155//3 169//3 166//3 164//3 168//3 154//3
f 152//2 155//2 151//2 158//2 156//2 162//2
f 161//1 144//1 145//1 163//1
f 151//2 148//2 152//2 162//2 160//2 158//2
f 158//3 142//3 143//3 156//3
f 154//4 153//4 163//4 157//4
f 159//5 140//5 144//5 161//5
f 163//6 145//6 141//6 157//6
f 167//2 138//2 139//2 170//2 171//2
f 155//3 154//3 168//3 173//3 169//3
f 165//5 136//5 138//5 167//5
f 153//1 152//1 171//1 170//1 172//1
f 173//6 133//6 135//6 169//6
f 164//4 132//4 133//4 173//4 168//4
f 150//5 149//5 148//5 177//5 175//5 174//5
f 179//1 184//1 185//1 181//1
f 181//6 152//6 153//6 154//6 178//6 179//6
f 181//2 185//2 186//2 180//2
f 180//3 186//3 183//3 182//3 178//3
f 178//4 182//4 184//4 179//4
f 182//5 183//5 122//5 120//5 124//5 126//5 185//5 184//5
f 137//1 139//1 190//1 191//1 189//1
f 188//2 195//2 193//2 190//2
f 187//5 194//5 195//5 188//5
f 117//1 119//1 200//1 196//1 198//1
f 114//3 115//3 113//3 192//3 193//3 195//3
f 194//4 187//4 189//4 191//4 192//4
f 197//5 201//5 206//5 199//5
f 199//2 206//2 205//2 204//2 200//2
f 192//6 191//6 190//6 193//6
f 107//3 105//3 203//3 202//3 204//3 205//3
f 202//6 196//6 200//6 204//6
f 201//4 197//4 198//4 196//4 202//4 203//4
