# Blender v2.78 (sub 0) OBJ File: 'hexagon_sink_platform.blend'
# www.blender.org
mtllib hexagon_sink_platform.mtl
o Cylinder
v -0.723730 -1.693904 1.593852
v -0.723730 0.306096 1.493852
v 0.055693 -1.693904 2.043852
v 0.142295 0.306096 1.993852
v 0.055693 -1.693904 2.943852
v 0.142295 0.306096 2.993852
v -0.723730 -1.693904 3.393852
v -0.723730 0.306096 3.493852
v -1.503153 -1.693904 2.943851
v -1.589756 0.306096 2.993852
v -1.503153 -1.693904 2.043852
v -1.589756 0.306096 1.993852
v -0.396118 0.306096 2.304705
v -0.723730 0.306096 2.115558
v -0.396118 0.306096 2.682998
v -0.723730 0.306096 2.872145
v -1.051342 0.306096 2.682998
v -1.051342 0.306096 2.304705
v -0.396118 0.268692 2.304705
v -0.723730 0.268692 2.115558
v -0.396118 0.268692 2.682998
v -0.723730 0.268692 2.872145
v -1.051342 0.268692 2.682998
v -1.051342 0.268692 2.304705
v -0.459298 0.268692 2.341182
v -0.723730 0.268692 2.188512
v -0.459298 0.268692 2.646522
v -0.723730 0.268692 2.799191
v -0.988162 0.268692 2.646522
v -0.988162 0.268692 2.341182
v -0.459298 0.302722 2.341182
v -0.723730 0.302722 2.188512
v -0.459298 0.302722 2.646522
v -0.723730 0.302722 2.799191
v -0.988162 0.302722 2.646522
v -0.988162 0.302722 2.341182
v -0.511961 0.302722 2.371587
v -0.723730 0.302722 2.249322
v -0.511961 0.302722 2.616117
v -0.723730 0.302722 2.738381
v -0.935499 0.302722 2.616117
v -0.935499 0.302722 2.371587
v -0.511961 0.269423 2.371587
v -0.723730 0.269423 2.249322
v -0.511961 0.269423 2.616117
v -0.723730 0.269423 2.738381
v -0.935499 0.269423 2.616117
v -0.935499 0.269423 2.371587
v -0.559678 0.269423 2.399136
v -0.723730 0.269423 2.304420
v -0.559678 0.269423 2.588567
v -0.723730 0.269423 2.683283
v -0.887783 0.269423 2.588567
v -0.887783 0.269423 2.399136
v -0.559678 0.301106 2.399136
v -0.723730 0.301106 2.304420
v -0.559678 0.301106 2.588567
v -0.723730 0.301106 2.683283
v -0.887783 0.301106 2.588567
v -0.887783 0.301106 2.399136
v -0.602119 0.301106 2.423640
v -0.723730 0.301106 2.353427
v -0.602119 0.301106 2.564064
v -0.723730 0.301106 2.634276
v -0.845341 0.301106 2.564064
v -0.845341 0.301106 2.423640
v -0.642076 0.273730 2.446708
v -0.723730 0.273730 2.399565
v -0.642076 0.273730 2.540995
v -0.723730 0.273730 2.588138
v -0.805385 0.273730 2.540995
v -0.805385 0.273730 2.446708
vn 0.4995 -0.0433 -0.8652
vn 0.9991 -0.0433 0.0000
vn 0.4995 -0.0433 0.8652
vn -0.4995 -0.0433 0.8652
vn 0.0000 1.0000 -0.0000
vn -0.9991 -0.0433 0.0000
vn -0.4995 -0.0433 -0.8652
vn 0.0000 -1.0000 0.0000
vn 1.0000 0.0000 0.0000
vn -0.5000 0.0000 -0.8660
vn -0.5000 0.0000 0.8660
vn 0.5000 0.0000 0.8660
vn 0.5000 0.0000 -0.8660
vn -1.0000 0.0000 0.0000
vn -0.2826 0.8249 -0.4895
vn -0.2826 0.8249 0.4895
vn 0.2826 0.8249 0.4895
vn 0.2826 0.8249 -0.4895
vn -0.5652 0.8249 0.0000
vn 0.5652 0.8249 0.0000
usemtl None
s off
f 1//1 2//1 4//1 3//1
f 3//2 4//2 6//2 5//2
f 5//3 6//3 8//3 7//3
f 7//4 8//4 10//4 9//4
f 2//5 12//5 18//5 14//5
f 9//6 10//6 12//6 11//6
f 11//7 12//7 2//7 1//7
f 1//8 3//8 5//8 7//8 9//8 11//8
f 18//9 17//9 23//9 24//9
f 10//5 8//5 16//5 17//5
f 6//5 4//5 13//5 15//5
f 12//5 10//5 17//5 18//5
f 4//5 2//5 14//5 13//5
f 8//5 6//5 15//5 16//5
f 20//5 24//5 30//5 26//5
f 16//10 15//10 21//10 22//10
f 13//11 14//11 20//11 19//11
f 14//12 18//12 24//12 20//12
f 17//13 16//13 22//13 23//13
f 15//14 13//14 19//14 21//14
f 30//14 29//14 35//14 36//14
f 23//5 22//5 28//5 29//5
f 21//5 19//5 25//5 27//5
f 24//5 23//5 29//5 30//5
f 22//5 21//5 27//5 28//5
f 19//5 20//5 26//5 25//5
f 32//5 36//5 42//5 38//5
f 28//12 27//12 33//12 34//12
f 25//13 26//13 32//13 31//13
f 26//10 30//10 36//10 32//10
f 29//11 28//11 34//11 35//11
f 27//9 25//9 31//9 33//9
f 42//9 41//9 47//9 48//9
f 35//5 34//5 40//5 41//5
f 33//5 31//5 37//5 39//5
f 36//5 35//5 41//5 42//5
f 34//5 33//5 39//5 40//5
f 31//5 32//5 38//5 37//5
f 44//5 48//5 54//5 50//5
f 40//10 39//10 45//10 46//10
f 37//11 38//11 44//11 43//11
f 38//12 42//12 48//12 44//12
f 41//13 40//13 46//13 47//13
f 39//14 37//14 43//14 45//14
f 54//14 53//14 59//14 60//14
f 47//5 46//5 52//5 53//5
f 45//5 43//5 49//5 51//5
f 48//5 47//5 53//5 54//5
f 46//5 45//5 51//5 52//5
f 43//5 44//5 50//5 49//5
f 59//5 58//5 64//5 65//5
f 52//12 51//12 57//12 58//12
f 49//13 50//13 56//13 55//13
f 50//10 54//10 60//10 56//10
f 53//11 52//11 58//11 59//11
f 51//9 49//9 55//9 57//9
f 64//15 63//15 69//15 70//15
f 57//5 55//5 61//5 63//5
f 60//5 59//5 65//5 66//5
f 58//5 57//5 63//5 64//5
f 55//5 56//5 62//5 61//5
f 56//5 60//5 66//5 62//5
f 67//5 68//5 72//5 71//5 70//5 69//5
f 61//16 62//16 68//16 67//16
f 62//17 66//17 72//17 68//17
f 65//18 64//18 70//18 71//18
f 63//19 61//19 67//19 69//19
f 66//20 65//20 71//20 72//20
