# Blender v2.78 (sub 0) OBJ File: 'hexagon_large_spawner.blend'
# www.blender.org
mtllib hexagon_large_spawner.mtl
o Cylinder
v -0.300000 2.000000 -2.000000
v 0.300000 2.000000 -2.000000
v 2.000000 2.000000 -0.300000
v 2.000000 2.000000 0.300000
v 0.371952 2.000000 -0.214747
v 0.371952 2.000000 0.214747
v -0.371952 2.000000 0.214747
v -0.371952 2.000000 -0.214746
v 1.039231 0.500000 -0.600000
v 1.039231 1.500000 -0.600000
v 1.039230 0.500000 0.600000
v 1.039230 1.500000 0.600000
v -1.039231 0.500000 0.600000
v -1.039231 1.500000 0.600000
v -1.039231 0.500000 -0.600000
v -1.039231 1.500000 -0.600000
v 0.866025 -1.000000 -0.500000
v 0.866025 -1.000000 0.500000
v -0.866025 -1.000000 0.500000
v -0.866025 -1.000000 -0.500000
v -0.606218 -1.000000 -0.350000
v -0.606218 -1.000000 0.350000
v 0.606218 -1.000000 -0.350000
v 0.606218 -1.000000 0.350000
v -0.866025 0.500000 0.500000
v -0.866025 0.500000 -0.300000
v -0.606218 0.500000 0.350000
v -0.866025 0.500000 -0.500000
v 0.866025 0.500000 -0.500000
v 0.606218 0.500000 -0.350000
v 0.606218 0.500000 -0.175000
v 0.866025 0.500000 -0.300000
v -0.606218 0.500000 -0.350000
v 0.606218 0.500000 0.350000
v 0.866025 0.500000 0.500000
v 0.618989 1.500000 0.357373
v -0.618989 1.500000 0.357373
v 0.618989 1.500000 -0.357373
v -0.618989 1.500000 -0.357373
v -0.618989 1.500000 -0.127880
v 0.000000 2.000000 -2.300000
v 0.300000 2.000000 -2.000000
v 0.000000 2.000000 -1.700000
v 0.000000 0.000000 -2.000000
v -0.300000 2.000000 -2.000000
v -2.000000 2.000000 -0.300000
v -2.000000 2.000000 0.300000
v 0.000000 2.000000 -0.429493
v -0.371952 2.000000 -0.214747
v -0.371952 2.000000 0.214747
v 0.000000 2.000000 0.429493
v 0.371952 2.000000 0.214747
v 0.371952 2.000000 -0.214746
v 0.000000 0.500000 -1.200000
v 0.000000 1.500000 -1.200000
v -1.039231 0.500000 -0.600000
v -1.039231 1.500000 -0.600000
v -1.039230 0.500000 0.600000
v -1.039230 1.500000 0.600000
v 0.000000 0.500000 1.200000
v 0.000000 1.500000 1.200000
v 1.039231 0.500000 0.600000
v 1.039231 1.500000 0.600000
v 1.039231 0.500000 -0.600000
v 1.039231 1.500000 -0.600000
v 0.000000 -1.000000 -1.000000
v -0.866025 -1.000000 -0.500000
v -0.866025 -1.000000 0.500000
v 0.000000 -1.000000 1.000000
v 0.866025 -1.000000 0.500000
v 0.866025 -1.000000 -0.500000
v 0.606218 -1.000000 -0.350000
v 0.606218 -1.000000 0.350000
v -0.606218 -1.000000 -0.350000
v -0.606218 -1.000000 0.350000
v 0.000000 -1.000000 -0.700000
v 0.000000 -1.000000 0.700000
v 0.866025 0.500000 0.500000
v 0.866025 0.500000 -0.300000
v 0.606218 0.500000 0.350000
v 0.000000 0.500000 -1.000000
v 0.000000 0.500000 -0.700000
v 0.866025 0.500000 -0.500000
v -0.866025 0.500000 -0.500000
v -0.606218 0.500000 -0.350000
v -0.606218 0.500000 -0.175000
v 0.000000 0.500000 1.000000
v -0.866025 0.500000 -0.300000
v 0.606218 0.500000 -0.350000
v 0.000000 0.500000 0.700000
v -0.606218 0.500000 0.350000
v -0.866025 0.500000 0.500000
v -0.618989 1.500000 0.357373
v 0.000000 1.500000 0.714747
v 0.618989 1.500000 0.357373
v -0.618989 1.500000 -0.357373
v 0.618989 1.500000 -0.357373
v 0.618989 1.500000 -0.127880
v 0.000000 1.500000 -0.714747
v -0.300000 2.000000 2.000000
v 0.300000 2.000000 2.000000
v 2.000000 2.000000 0.300000
v 1.700000 2.000000 0.000000
v 2.000000 2.000000 -0.300000
v 2.000000 0.000000 0.000000
v 2.300000 2.000000 0.000000
v 0.371952 2.000000 0.214747
v 0.371952 2.000000 -0.214747
v -0.371952 2.000000 -0.214747
v -0.371952 2.000000 0.214746
v 1.039231 0.500000 0.600000
v 1.039231 1.500000 0.600000
v 1.039230 0.500000 -0.600000
v 1.039230 1.500000 -0.600000
v -1.039231 0.500000 -0.600000
v -1.039231 1.500000 -0.600000
v -1.039231 0.500000 0.600000
v -1.039231 1.500000 0.600000
v 0.866025 -1.000000 0.500000
v 0.866025 -1.000000 -0.500000
v -0.866025 -1.000000 -0.500000
v -0.866025 -1.000000 0.500000
v -0.606218 -1.000000 0.350000
v -0.606218 -1.000000 -0.350000
v 0.606218 -1.000000 0.350000
v 0.606218 -1.000000 -0.350000
v -0.866025 0.500000 -0.500000
v -0.866025 0.500000 0.300000
v -0.606218 0.500000 -0.350000
v -0.866025 0.500000 0.500000
v 0.866025 0.500000 0.500000
v 0.606218 0.500000 0.350000
v 0.606218 0.500000 0.175000
v 0.866025 0.500000 0.300000
v -0.606218 0.500000 0.350000
v 0.606218 0.500000 -0.350000
v 0.866025 0.500000 -0.500000
v 0.618989 1.500000 -0.357373
v -0.618989 1.500000 -0.357373
v 0.618989 1.500000 0.357373
v -0.618989 1.500000 0.357373
v -0.618989 1.500000 0.127880
v 0.000000 2.000000 2.300000
v 0.300000 2.000000 2.000000
v 0.000000 2.000000 1.700000
v 0.000000 0.000000 2.000000
v -0.300000 2.000000 2.000000
v -2.000000 2.000000 0.300000
v -1.700000 2.000000 0.000000
v -2.000000 2.000000 -0.300000
v -2.000000 0.000000 0.000000
v -2.300000 2.000000 0.000000
v 0.000000 2.000000 0.429493
v -0.371952 2.000000 0.214747
v -0.371952 2.000000 -0.214747
v 0.000000 2.000000 -0.429493
v 0.371952 2.000000 -0.214747
v 0.371952 2.000000 0.214746
v 0.000000 0.500000 1.200000
v 0.000000 1.500000 1.200000
v -1.039231 0.500000 0.600000
v -1.039231 1.500000 0.600000
v -1.039230 0.500000 -0.600000
v -1.039230 1.500000 -0.600000
v 0.000000 0.500000 -1.200000
v 0.000000 1.500000 -1.200000
v 1.039231 0.500000 -0.600000
v 1.039231 1.500000 -0.600000
v 1.039231 0.500000 0.600000
v 1.039231 1.500000 0.600000
v 0.000000 -1.000000 1.000000
v -0.866025 -1.000000 0.500000
v -0.866025 -1.000000 -0.500000
v 0.000000 -1.000000 -1.000000
v 0.866025 -1.000000 -0.500000
v 0.866025 -1.000000 0.500000
v 0.606218 -1.000000 0.350000
v 0.606218 -1.000000 -0.350000
v -0.606218 -1.000000 0.350000
v -0.606218 -1.000000 -0.350000
v 0.000000 -1.000000 0.700000
v 0.000000 -1.000000 -0.700000
v 0.866025 0.500000 -0.500000
v 0.866025 0.500000 0.300000
v 0.606218 0.500000 -0.350000
v 0.000000 0.500000 1.000000
v 0.000000 0.500000 0.700000
v 0.866025 0.500000 0.500000
v -0.866025 0.500000 0.500000
v -0.606218 0.500000 0.350000
v -0.606218 0.500000 0.175000
v 0.000000 0.500000 -1.000000
v -0.866025 0.500000 0.300000
v 0.606218 0.500000 0.350000
v 0.000000 0.500000 -0.700000
v -0.606218 0.500000 -0.350000
v -0.866025 0.500000 -0.500000
v -0.618989 1.500000 -0.357373
v 0.000000 1.500000 -0.714747
v 0.618989 1.500000 -0.357373
v -0.618989 1.500000 0.357373
v 0.618989 1.500000 0.357373
v 0.618989 1.500000 0.127880
v 0.000000 1.500000 0.714747
vn -0.7032 -0.1055 -0.7032
vn -0.7032 -0.1055 0.7032
vn 0.7032 -0.1055 0.7032
vn 0.7032 -0.1055 -0.7032
vn 0.0000 1.0000 0.0000
vn 0.5000 0.0000 -0.8660
vn 1.0000 0.0000 0.0000
vn 0.5000 0.0000 0.8660
vn -0.5000 0.0000 0.8660
vn -1.0000 0.0000 0.0000
vn -0.5000 0.0000 -0.8660
vn -0.0000 -1.0000 -0.0000
vn 0.4483 0.4430 0.7764
vn 0.8965 0.4430 0.0000
vn 0.4483 0.4430 -0.7764
vn -0.4483 0.4430 -0.7764
vn -0.4483 0.4430 0.7764
vn -0.8965 0.4430 0.0000
usemtl None
s off
f 41//1 44//1 1//1
f 1//2 44//2 43//2
f 43//3 44//3 2//3
f 2//4 44//4 41//4
f 41//5 1//5 43//5 2//5
f 3//1 105//1 103//1
f 103//2 105//2 4//2
f 4//3 105//3 106//3
f 106//4 105//4 3//4
f 3//5 103//5 4//5 106//5
f 5//5 48//5 8//5 7//5 51//5 6//5
f 54//6 55//6 10//6 9//6
f 9//7 10//7 12//7 11//7
f 11//8 12//8 61//8 60//8
f 60//9 61//9 14//9 13//9
f 10//5 38//5 36//5 94//5 37//5 40//5 16//5 14//5 61//5 12//5
f 13//10 14//10 16//10 15//10
f 15//11 16//11 55//11 54//11
f 54//12 9//12 29//12 81//12 28//12 26//12 15//12
f 66//6 81//6 29//6 17//6
f 17//7 29//7 32//7 35//7 18//7
f 18//8 35//8 87//8 69//8
f 69//9 87//9 25//9 19//9
f 19//10 25//10 26//10 28//10 20//10
f 20//11 28//11 81//11 66//11
f 66//12 17//12 23//12 76//12 21//12 20//12
f 77//11 90//11 34//11 24//11
f 24//10 34//10 31//10 30//10 23//10
f 23//9 30//9 82//9 76//9
f 76//8 82//8 33//8 21//8
f 20//12 21//12 22//12 77//12 24//12 23//12 17//12 18//12 69//12 19//12
f 22//6 27//6 90//6 77//6
f 21//7 33//7 27//7 22//7
f 15//12 26//12 25//12 87//12 35//12 32//12 29//12 9//12 11//12 60//12 13//12
f 31//12 34//12 90//12 27//12 33//12 82//12 30//12
f 94//13 36//13 6//13 51//13
f 36//14 38//14 5//14 6//14
f 38//15 99//15 48//15 5//15
f 16//5 40//5 39//5 99//5 38//5 10//5 55//5
f 99//16 39//16 8//16 48//16
f 37//17 94//17 51//17 7//17
f 39//18 40//18 37//18 7//18 8//18
f 41//4 42//4 44//4
f 42//3 43//3 44//3
f 43//2 45//2 44//2
f 45//1 41//1 44//1
f 41//5 45//5 43//5 42//5
f 46//4 149//4 151//4
f 149//3 47//3 151//3
f 47//2 152//2 151//2
f 152//1 46//1 151//1
f 46//5 152//5 47//5 149//5
f 49//5 50//5 51//5 52//5 53//5 48//5
f 54//11 56//11 57//11 55//11
f 56//10 58//10 59//10 57//10
f 58//9 60//9 61//9 59//9
f 60//8 62//8 63//8 61//8
f 57//5 59//5 61//5 63//5 65//5 98//5 95//5 94//5 93//5 96//5
f 62//7 64//7 65//7 63//7
f 64//6 54//6 55//6 65//6
f 54//12 64//12 79//12 83//12 81//12 84//12 56//12
f 66//11 67//11 84//11 81//11
f 67//10 68//10 92//10 88//10 84//10
f 68//9 69//9 87//9 92//9
f 69//8 70//8 78//8 87//8
f 70//7 71//7 83//7 79//7 78//7
f 71//6 66//6 81//6 83//6
f 66//12 71//12 72//12 76//12 74//12 67//12
f 77//6 75//6 91//6 90//6
f 75//7 74//7 85//7 86//7 91//7
f 74//8 76//8 82//8 85//8
f 76//9 72//9 89//9 82//9
f 71//12 70//12 69//12 68//12 67//12 74//12 75//12 77//12 73//12 72//12
f 73//11 77//11 90//11 80//11
f 72//10 73//10 80//10 89//10
f 64//12 62//12 60//12 58//12 56//12 84//12 88//12 92//12 87//12 78//12 79//12
f 86//12 85//12 82//12 89//12 80//12 90//12 91//12
f 94//17 51//17 50//17 93//17
f 93//18 50//18 49//18 96//18
f 96//16 49//16 48//16 99//16
f 65//5 55//5 57//5 96//5 99//5 97//5 98//5
f 99//15 48//15 53//15 97//15
f 95//13 52//13 51//13 94//13
f 97//14 53//14 52//14 95//14 98//14
f 143//2 100//2 146//2
f 100//1 145//1 146//1
f 145//4 101//4 146//4
f 101//3 143//3 146//3
f 143//5 101//5 145//5 100//5
f 102//2 103//2 105//2
f 103//1 104//1 105//1
f 104//4 106//4 105//4
f 106//3 102//3 105//3
f 102//5 106//5 104//5 103//5
f 107//5 108//5 156//5 109//5 110//5 153//5
f 159//8 111//8 112//8 160//8
f 111//7 113//7 114//7 112//7
f 113//6 165//6 166//6 114//6
f 165//11 115//11 116//11 166//11
f 112//5 114//5 166//5 116//5 118//5 142//5 139//5 199//5 138//5 140//5
f 115//10 117//10 118//10 116//10
f 117//9 159//9 160//9 118//9
f 159//12 117//12 128//12 130//12 186//12 131//12 111//12
f 171//8 119//8 131//8 186//8
f 119//7 120//7 137//7 134//7 131//7
f 120//6 174//6 192//6 137//6
f 174//11 121//11 127//11 192//11
f 121//10 122//10 130//10 128//10 127//10
f 122//9 171//9 186//9 130//9
f 171//12 122//12 123//12 181//12 125//12 119//12
f 182//9 126//9 136//9 195//9
f 126//10 125//10 132//10 133//10 136//10
f 125//11 181//11 187//11 132//11
f 181//6 123//6 135//6 187//6
f 122//12 121//12 174//12 120//12 119//12 125//12 126//12 182//12 124//12 123//12
f 124//8 182//8 195//8 129//8
f 123//7 124//7 129//7 135//7
f 117//12 115//12 165//12 113//12 111//12 131//12 134//12 137//12 192//12 127//12 128//12
f 133//12 132//12 187//12 135//12 129//12 195//12 136//12
f 199//15 156//15 108//15 138//15
f 138//14 108//14 107//14 140//14
f 140//13 107//13 153//13 204//13
f 118//5 160//5 112//5 140//5 204//5 141//5 142//5
f 204//17 153//17 110//17 141//17
f 139//16 109//16 156//16 199//16
f 141//18 110//18 109//18 139//18 142//18
f 143//3 146//3 144//3
f 144//4 146//4 145//4
f 145//1 146//1 147//1
f 147//2 146//2 143//2
f 143//5 144//5 145//5 147//5
f 148//3 151//3 149//3
f 149//4 151//4 150//4
f 150//1 151//1 152//1
f 152//2 151//2 148//2
f 148//5 149//5 150//5 152//5
f 154//5 153//5 158//5 157//5 156//5 155//5
f 159//9 160//9 162//9 161//9
f 161//10 162//10 164//10 163//10
f 163//11 164//11 166//11 165//11
f 165//6 166//6 168//6 167//6
f 162//5 201//5 198//5 199//5 200//5 203//5 170//5 168//5 166//5 164//5
f 167//7 168//7 170//7 169//7
f 169//8 170//8 160//8 159//8
f 159//12 161//12 189//12 186//12 188//12 184//12 169//12
f 171//9 186//9 189//9 172//9
f 172//10 189//10 193//10 197//10 173//10
f 173//11 197//11 192//11 174//11
f 174//6 192//6 183//6 175//6
f 175//7 183//7 184//7 188//7 176//7
f 176//8 188//8 186//8 171//8
f 171//12 172//12 179//12 181//12 177//12 176//12
f 182//8 195//8 196//8 180//8
f 180//7 196//7 191//7 190//7 179//7
f 179//6 190//6 187//6 181//6
f 181//11 187//11 194//11 177//11
f 176//12 177//12 178//12 182//12 180//12 179//12 172//12 173//12 174//12 175//12
f 178//9 185//9 195//9 182//9
f 177//10 194//10 185//10 178//10
f 169//12 184//12 183//12 192//12 197//12 193//12 189//12 161//12 163//12 165//12 167//12
f 191//12 196//12 195//12 185//12 194//12 187//12 190//12
f 199//16 198//16 155//16 156//16
f 198//18 201//18 154//18 155//18
f 201//17 204//17 153//17 154//17
f 170//5 203//5 202//5 204//5 201//5 162//5 160//5
f 204//13 202//13 158//13 153//13
f 200//15 199//15 156//15 157//15
f 202//14 203//14 200//14 157//14 158//14
