# Blender v2.77 (sub 0) OBJ File: 'maze_1.blend'
# www.blender.org
mtllib maze_1.mtl
o Cube
v 1.000000 -1.000000 -1.000000
v 1.000000 -1.000000 1.000000
v -3.000000 1.000000 -1.000000
v -1.000000 -1.000000 -1.000000
v 1.000000 1.000000 -0.999999
v 0.999999 1.000000 1.000001
v -3.000000 -1.000000 -1.000001
v -1.000000 1.000000 -1.000000
v 1.000000 -1.000000 -3.000000
v -0.999999 -1.000000 -3.000000
v 1.000001 1.000000 -3.000000
v -0.999999 1.000000 -3.000000
v 5.000000 1.000004 -2.999999
v -0.999999 -0.999999 -5.000000
v 5.000000 -0.999996 -2.999999
v -0.999999 1.000001 -5.000000
v 1.000001 -0.999999 -7.000000
v -0.999998 -0.999999 -7.000000
v 1.000002 1.000001 -7.000000
v -0.999999 1.000001 -7.000000
v 1.000002 -0.999998 -9.000000
v -0.999998 -0.999998 -9.000000
v 1.000002 1.000002 -9.000000
v -0.999998 1.000002 -9.000000
v 0.999999 -1.000000 3.000000
v -1.000001 -1.000000 3.000000
v 0.999999 1.000000 3.000000
v -1.000001 1.000000 3.000000
v 0.999999 -1.000000 5.000000
v -1.000001 -1.000000 5.000000
v 0.999998 1.000000 5.000000
v -1.000002 1.000000 5.000000
v 0.999998 -1.000000 7.000000
v -1.000002 -1.000000 7.000000
v 0.999998 1.000000 7.000000
v -1.000002 1.000000 7.000000
v 0.999998 -1.000000 9.000000
v -1.000002 -1.000000 9.000000
v 0.999997 1.000000 9.000000
v -1.000003 1.000000 9.000000
v -3.000002 -1.000001 7.000000
v -3.000002 0.999999 6.999999
v -3.000002 -1.000001 9.000000
v -3.000002 0.999999 9.000000
v -5.000002 -1.000001 6.999999
v -5.000002 0.999999 6.999999
v -5.000002 -1.000001 9.000000
v -5.000002 0.999999 9.000000
v -7.000002 -1.000001 6.999999
v -7.000002 0.999999 6.999998
v -7.000002 -1.000001 9.000000
v -7.000002 0.999999 9.000000
v -9.000002 -1.000001 6.999998
v -9.000002 0.999999 6.999998
v -9.000002 -1.000001 9.000000
v -9.000002 0.999999 9.000000
v -11.000002 -1.000001 6.999998
v -11.000002 0.999999 6.999998
v -11.000002 -1.000001 9.000000
v -11.000002 0.999999 9.000000
v 2.999998 -1.000000 7.000000
v 2.999998 1.000000 7.000001
v 2.999998 -1.000000 9.000001
v 2.999997 1.000000 9.000001
v 4.999998 -0.999999 7.000001
v 4.999998 1.000001 7.000001
v 4.999998 -0.999999 9.000001
v 4.999997 1.000001 9.000001
v 6.999998 -0.999998 7.000001
v 6.999998 1.000002 7.000002
v 6.999998 -0.999998 9.000001
v 6.999997 1.000002 9.000001
v 8.999998 -0.999998 7.000002
v 8.999998 1.000002 7.000002
v 8.999998 -0.999998 9.000001
v 8.999997 1.000002 9.000001
v 6.999999 -0.999998 5.000001
v 6.999998 1.000002 5.000002
v 8.999998 -0.999997 5.000002
v 8.999998 1.000003 5.000002
v 6.999999 -0.999997 3.000001
v 6.999999 1.000003 3.000002
v 8.999998 -0.999997 3.000002
v 8.999998 1.000003 3.000002
v 7.000000 -0.999997 1.000001
v 6.999999 1.000003 1.000002
v 8.999998 -0.999996 1.000002
v 8.999998 1.000004 1.000002
v 7.000000 -0.999996 -0.999999
v 7.000000 1.000004 -0.999998
v 8.999999 -0.999996 -0.999998
v 8.999999 1.000004 -0.999998
v 7.000000 -0.999996 -2.999999
v 7.000000 1.000004 -2.999998
v 9.000000 -0.999995 -2.999998
v 9.000000 1.000005 -2.999998
v 7.000001 -0.999995 -4.999999
v 7.000000 1.000005 -4.999998
v 9.000000 -0.999995 -4.999998
v 9.000000 1.000005 -4.999998
v 7.000001 -0.999995 -6.999999
v 7.000001 1.000005 -6.999998
v 9.000000 -0.999994 -6.999998
v 9.000000 1.000006 -6.999998
v 7.000002 -0.999995 -8.999998
v 7.000001 1.000005 -8.999998
v 9.000001 -0.999994 -8.999998
v 9.000001 1.000006 -8.999998
v 5.000001 -0.999995 -6.999999
v 5.000001 1.000005 -6.999999
v 5.000002 -0.999995 -8.999999
v 5.000001 1.000005 -8.999999
v 3.000001 -0.999996 -7.000000
v 3.000001 1.000004 -6.999999
v 3.000002 -0.999995 -9.000000
v 3.000001 1.000005 -9.000000
v 1.000001 -0.999996 -7.000000
v 1.000001 1.000004 -7.000000
v 1.000002 -0.999996 -9.000000
v 1.000001 1.000004 -9.000000
v -2.999998 -0.999999 -7.000001
v -2.999999 1.000001 -7.000000
v -2.999998 -0.999998 -9.000001
v -2.999998 1.000002 -9.000001
v -4.999998 -0.999999 -7.000001
v -4.999999 1.000001 -7.000001
v -4.999998 -0.999999 -9.000002
v -4.999998 1.000001 -9.000002
v -6.999998 -1.000000 -7.000002
v -6.999999 1.000000 -7.000001
v -6.999998 -0.999999 -9.000002
v -6.999998 1.000001 -9.000002
v -8.999998 -1.000000 -7.000002
v -8.999998 1.000000 -7.000002
v -8.999998 -1.000000 -9.000003
v -8.999998 1.000000 -9.000003
v -10.999998 -1.000000 -7.000002
v -10.999998 1.000000 -7.000002
v -10.999998 -1.000000 -9.000003
v -10.999998 1.000000 -9.000003
v -8.999998 -1.000001 -5.000002
v -8.999998 0.999999 -5.000002
v -10.999998 -1.000001 -5.000002
v -10.999998 0.999999 -5.000002
v -8.999998 -1.000001 -3.000002
v -8.999998 0.999999 -3.000002
v -10.999998 -1.000001 -3.000002
v -10.999998 0.999999 -3.000002
v -8.999998 -1.000002 -1.000002
v -8.999998 0.999998 -1.000002
v -10.999998 -1.000002 -1.000002
v -10.999998 0.999998 -1.000002
v -8.999998 -1.000002 0.999998
v -8.999998 0.999998 0.999998
v -10.999998 -1.000002 0.999998
v -10.999998 0.999998 0.999998
v -8.999998 -1.000003 2.999998
v -8.999998 0.999997 2.999998
v -10.999998 -1.000003 2.999998
v -10.999998 0.999997 2.999998
v -8.999998 -1.000003 4.999998
v -8.999998 0.999997 4.999998
v -10.999998 -1.000003 4.999998
v -10.999998 0.999997 4.999998
v -8.999998 -1.000004 6.999998
v -8.999998 0.999996 6.999998
v -10.999998 -1.000004 6.999998
v -10.999998 0.999996 6.999998
v 2.999999 -0.999999 5.000000
v 2.999998 1.000001 5.000001
v 4.999999 -0.999999 5.000001
v 4.999998 1.000001 5.000001
v 4.999999 -0.999998 3.000001
v 4.999999 1.000002 3.000001
v 5.000000 -0.999997 1.000001
v 4.999999 1.000003 1.000001
v 2.999999 -0.999998 3.000000
v 2.999999 1.000002 3.000001
v 3.000000 -0.999998 1.000000
v 2.999999 1.000002 1.000001
v 0.999999 -0.999999 3.000000
v 0.999999 1.000001 3.000000
v 1.000000 -0.999998 1.000000
v 0.999999 1.000002 1.000000
v 5.000000 -0.999997 -0.999999
v 5.000000 1.000003 -0.999999
v 3.000000 -0.999997 -1.000000
v 3.000000 1.000003 -0.999999
v -3.000001 -1.000000 2.999999
v -3.000001 1.000000 2.999999
v -3.000001 -1.000001 5.000000
v -3.000001 0.999999 4.999999
v -6.999998 -1.000001 -5.000002
v -6.999998 0.999999 -5.000002
v -6.999998 -1.000001 -3.000002
v -6.999998 0.999999 -3.000002
v -4.999998 -1.000001 -5.000002
v -4.999998 0.999999 -5.000002
v -4.999998 -1.000001 -3.000002
v -4.999998 0.999999 -3.000002
v -0.999999 -0.999999 -5.000000
v -0.999999 1.000001 -5.000000
v -2.999999 -0.999999 -5.000001
v -2.999999 1.000001 -5.000000
v 5.000001 -0.999996 -4.999999
v 5.000000 1.000004 -4.999999
v 5.000001 -0.999996 -4.999999
v 5.000000 1.000004 -4.999999
v 5.000001 -0.999995 -6.999999
v 5.000001 1.000005 -6.999999
v 3.000000 -1.000000 -0.999999
v 3.000000 1.000000 -0.999999
v 3.000000 -1.000000 -3.000000
v 3.000001 1.000000 -2.999999
v 1.000001 -0.999999 -5.000000
v 1.000001 1.000001 -5.000000
v 3.000001 -1.000000 -5.000000
v 3.000001 1.000000 -4.999999
v -2.999999 -1.000000 -3.000001
v -3.000000 1.000000 -3.000000
v -3.000000 -1.000001 0.999999
v -1.000000 -1.000000 1.000000
v -1.000000 1.000000 1.000000
v -3.000000 0.999999 1.000000
v -5.000000 -1.000001 -1.000001
v -5.000000 0.999999 -1.000001
v -5.000000 -1.000001 0.999999
v -5.000000 0.999999 0.999999
v -7.000000 -1.000001 -1.000002
v -7.000000 0.999999 -1.000001
v -7.000000 -1.000002 0.999998
v -7.000000 0.999998 0.999999
v -5.000001 -1.000002 4.999999
v -5.000001 0.999998 4.999999
v -7.000001 -1.000002 4.999998
v -7.000001 0.999998 4.999999
vn 0.0000 -1.0000 -0.0000
vn 0.0000 0.0000 -1.0000
vn -0.0000 1.0000 0.0000
vn 1.0000 -0.0000 0.0000
vn -1.0000 -0.0000 -0.0000
vn -0.0000 -0.0000 1.0000
vn 0.4472 0.0000 0.8944
vn 0.4472 0.0000 -0.8944
usemtl Material
s off
f 10//1 4//1 7//1 219//1
f 12//2 10//2 219//2 220//2
f 8//3 12//3 220//3 3//3
f 214//4 213//4 217//4 218//4
f 7//5 3//5 220//5 219//5
f 11//3 5//3 212//3 214//3
f 97//1 93//1 15//1 205//1
f 8//3 5//3 11//3 12//3
f 3//2 7//2 225//2 226//2
f 1//1 4//1 10//1 9//1
f 14//5 16//5 20//5 18//5
f 93//6 94//6 13//6 15//6
f 94//3 98//3 206//3 13//3
f 15//5 13//5 206//5 205//5
f 17//1 18//1 22//1 21//1
f 98//3 102//3 210//3 208//3
f 102//2 101//2 209//2 210//2
f 101//1 97//1 207//1 209//1
f 23//2 21//2 22//2 24//2
f 20//3 19//3 23//3 24//3
f 17//6 118//6 117//6 19//6 20//6 18//6
f 22//1 18//1 121//1 123//1
f 28//2 26//2 189//2 190//2
f 2//4 6//4 27//4 25//4
f 5//6 1//6 211//6 212//6
f 212//4 211//4 213//4 214//4
f 9//5 11//5 216//5 215//5
f 26//1 25//1 29//1 30//1
f 27//3 28//3 32//3 31//3
f 25//4 27//4 31//4 29//4
f 33//2 35//2 62//2 61//2
f 213//1 9//1 215//1 217//1
f 215//2 216//2 218//2 217//2
f 1//1 9//1 213//1 211//1
f 37//6 39//6 40//6 38//6
f 34//1 33//1 37//1 38//1
f 35//3 36//3 40//3 39//3
f 44//3 42//3 46//3 48//3
f 45//1 47//1 51//1 49//1
f 43//6 44//6 48//6 47//6
f 41//1 43//1 47//1 45//1
f 42//2 41//2 45//2 46//2
f 49//1 51//1 55//1 53//1
f 46//2 45//2 49//2 50//2
f 48//3 46//3 50//3 52//3
f 47//6 48//6 52//6 51//6
f 56//3 54//3 58//3 60//3
f 50//2 49//2 53//2 54//2
f 52//3 50//3 54//3 56//3
f 51//6 52//6 56//6 55//6
f 58//5 57//5 59//5 60//5
f 55//6 56//6 60//6 59//6
f 53//1 55//1 59//1 57//1
f 54//2 53//2 57//2 58//2
f 65//1 61//1 169//1 171//1
f 35//3 39//3 64//3 62//3
f 37//1 33//1 61//1 63//1
f 39//6 37//6 63//6 64//6
f 67//1 65//1 69//1 71//1
f 63//1 61//1 65//1 67//1
f 64//6 63//6 67//6 68//6
f 62//3 64//3 68//3 66//3
f 70//3 72//3 76//3 74//3
f 68//6 67//6 71//6 72//6
f 66//3 68//3 72//3 70//3
f 65//2 66//2 70//2 69//2
f 73//4 74//4 76//4 75//4
f 70//3 74//3 80//3 78//3
f 71//1 69//1 73//1 75//1
f 72//6 71//6 75//6 76//6
f 80//4 79//4 83//4 84//4
f 69//5 70//5 78//5 77//5
f 73//1 69//1 77//1 79//1
f 74//4 73//4 79//4 80//4
f 82//3 84//3 88//3 86//3
f 78//3 80//3 84//3 82//3
f 77//5 78//5 82//5 81//5
f 79//1 77//1 81//1 83//1
f 86//2 85//2 175//2 176//2
f 83//1 81//1 85//1 87//1
f 84//4 83//4 87//4 88//4
f 90//3 92//3 96//3 94//3
f 90//6 89//6 91//6 92//6
f 86//2 88//2 87//2 85//2
f 94//3 96//3 100//3 98//3
f 89//5 90//5 94//5 93//5
f 91//1 89//1 93//1 95//1
f 92//4 91//4 95//4 96//4
f 99//1 97//1 101//1 103//1
f 98//2 97//2 205//2 206//2
f 95//1 93//1 97//1 99//1
f 96//4 95//4 99//4 100//4
f 102//3 104//3 108//3 106//3
f 100//4 99//4 103//4 104//4
f 98//3 100//3 104//3 102//3
f 97//6 98//6 208//6 207//6
f 105//2 106//2 108//2 107//2
f 106//2 105//2 111//2 112//2
f 103//1 101//1 105//1 107//1
f 104//4 103//4 107//4 108//4
f 111//1 109//1 113//1 115//1
f 102//3 106//3 112//3 110//3
f 101//6 102//6 110//6 109//6
f 105//1 101//1 109//1 111//1
f 114//3 116//3 120//3 118//3
f 112//2 111//2 115//2 116//2
f 110//3 112//3 116//3 114//3
f 109//6 110//6 114//6 113//6
f 177//4 179//4 180//4 178//4
f 113//6 114//6 118//6 117//6
f 115//1 113//1 117//1 119//1
f 116//2 115//2 119//2 120//2
f 124//2 123//2 127//2 128//2
f 24//2 22//2 123//2 124//2
f 20//3 24//3 124//3 122//3
f 20//3 122//3 204//3 202//3
f 127//1 125//1 129//1 131//1
f 123//1 121//1 125//1 127//1
f 121//6 122//6 126//6 125//6
f 122//3 124//3 128//3 126//3
f 130//3 132//3 136//3 134//3
f 125//6 126//6 130//6 129//6
f 126//3 128//3 132//3 130//3
f 128//2 127//2 131//2 132//2
f 135//1 133//1 137//1 139//1
f 132//2 131//2 135//2 136//2
f 131//1 129//1 133//1 135//1
f 129//6 130//6 134//6 133//6
f 137//5 138//5 140//5 139//5
f 138//5 137//5 143//5 144//5
f 134//3 136//3 140//3 138//3
f 136//2 135//2 139//2 140//2
f 142//3 144//3 148//3 146//3
f 133//4 134//4 142//4 141//4
f 134//3 138//3 144//3 142//3
f 137//1 133//1 141//1 143//1
f 147//1 145//1 149//1 151//1
f 144//5 143//5 147//5 148//5
f 143//1 141//1 145//1 147//1
f 142//3 146//3 196//3 194//3
f 149//4 150//4 154//4 153//4
f 145//4 146//4 150//4 149//4
f 146//3 148//3 152//3 150//3
f 148//5 147//5 151//5 152//5
f 154//3 156//3 160//3 158//3
f 150//3 152//3 156//3 154//3
f 152//5 151//5 155//5 156//5
f 151//1 149//1 153//1 155//1
f 159//1 157//1 161//1 163//1
f 156//5 155//5 159//5 160//5
f 155//1 153//1 157//1 159//1
f 153//4 154//4 158//4 157//4
f 162//3 164//3 168//3 166//3
f 157//4 158//4 162//4 161//4
f 158//3 160//3 164//3 162//3
f 160//5 159//5 163//5 164//5
f 165//6 166//6 168//6 167//6
f 164//5 163//5 167//5 168//5
f 163//1 161//1 165//1 167//1
f 161//4 162//4 166//4 165//4
f 36//5 34//5 38//5 40//5
f 42//4 44//4 43//4 41//4
f 169//2 170//2 172//2 171//2
f 61//5 62//5 170//5 169//5
f 62//3 66//3 172//3 170//3
f 66//4 65//4 171//4 172//4
f 4//4 8//4 223//4 222//4
f 82//3 86//3 176//3 174//3
f 81//6 82//6 174//6 173//6
f 85//1 81//1 173//1 175//1
f 179//1 177//1 181//1 183//1
f 222//6 223//6 224//6 221//6
f 11//3 214//3 218//3 216//3
f 175//1 179//1 187//1 185//1
f 180//2 179//2 183//2 184//2
f 178//3 180//3 184//3 182//3
f 177//6 178//6 182//6 181//6
f 186//2 185//2 187//2 188//2
f 179//5 180//5 188//5 187//5
f 176//4 175//4 185//4 186//4
f 180//3 176//3 186//3 188//3
f 190//5 189//5 191//5 192//5
f 32//3 28//3 190//3 192//3
f 26//1 30//1 191//1 189//1
f 30//6 32//6 192//6 191//6
f 194//3 196//3 200//3 198//3
f 141//2 142//2 194//2 193//2
f 146//6 145//6 195//6 196//6
f 145//1 141//1 193//1 195//1
f 197//4 198//4 200//4 199//4
f 193//2 194//2 198//2 197//2
f 195//1 193//1 197//1 199//1
f 196//6 195//6 199//6 200//6
f 201//6 202//6 204//6 203//6
f 121//1 18//1 201//1 203//1
f 207//5 208//5 210//5 209//5
f 122//5 121//5 203//5 204//5
f 8//3 3//3 224//3 223//3
f 7//1 4//1 222//1 221//1
f 225//1 227//1 231//1 229//1
f 7//1 221//1 227//1 225//1
f 224//3 3//3 226//3 228//3
f 221//6 224//6 228//6 227//6
f 230//5 229//5 231//5 232//5
f 226//2 225//2 229//2 230//2
f 228//3 226//3 230//3 232//3
f 228//3 232//3 236//3 234//3
f 233//6 234//6 236//6 235//6
f 232//5 231//5 235//5 236//5
f 227//4 228//4 234//4 233//4
f 231//1 227//1 233//1 235//1
f 29//7 25//7 31//7 32//7 30//7
f 4//6 1//6 5//6 8//6
f 179//6 175//6 176//6 180//6
f 175//5 173//5 174//5 176//5
f 10//2 12//2 11//2 9//2
f 181//2 25//2 26//2 28//2 27//2 182//2
f 37//8 33//8 34//8 36//8 35//8
