# Blender v2.78 (sub 0) OBJ File: 'speed_shape.blend'
# www.blender.org
mtllib speed_shape.mtl
o Torus.001
v 2.000000 0.000000 -1.875000
v 1.783494 -0.000000 -1.312500
v 2.216506 0.000000 -1.312500
v 2.000000 -1.465934 -1.169043
v 1.783494 -1.026154 -0.818330
v 2.216506 -1.026154 -0.818330
v 2.000000 -1.827990 0.417227
v 1.783494 -1.279593 0.292059
v 2.216506 -1.279593 0.292059
v 2.000000 -0.813532 1.689316
v 1.783494 -0.569472 1.182522
v 2.216506 -0.569472 1.182522
v 2.000000 0.813531 1.689317
v 1.783494 0.569472 1.182522
v 2.216506 0.569472 1.182522
v 2.000000 1.827990 0.417227
v 1.783494 1.279593 0.292059
v 2.216506 1.279593 0.292059
v 2.000000 1.465935 -1.169042
v 1.783494 1.026154 -0.818330
v 2.216506 1.026154 -0.818330
vn -0.9196 -0.1705 -0.3540
vn 0.0000 0.4339 0.9010
vn 0.9196 -0.1705 -0.3540
vn -0.9196 -0.3830 -0.0874
vn 0.0000 0.9749 0.2225
vn 0.9196 -0.3830 -0.0874
vn -0.9196 -0.3071 0.2449
vn 0.0000 0.7818 -0.6235
vn 0.9196 -0.3071 0.2449
vn -0.9196 -0.0000 0.3929
vn 0.0000 0.0000 -1.0000
vn 0.9196 -0.0000 0.3929
vn -0.9196 0.3071 0.2449
vn 0.0000 -0.7818 -0.6235
vn 0.9196 0.3071 0.2449
vn -0.9196 0.3830 -0.0874
vn 0.0000 -0.9749 0.2225
vn 0.9196 0.3830 -0.0874
vn -0.9196 0.1705 -0.3540
vn 0.0000 -0.4339 0.9010
vn 0.9196 0.1705 -0.3540
usemtl None
s off
f 1//1 4//1 5//1 2//1
f 2//2 5//2 6//2 3//2
f 1//3 3//3 6//3 4//3
f 4//4 7//4 8//4 5//4
f 5//5 8//5 9//5 6//5
f 6//6 9//6 7//6 4//6
f 7//7 10//7 11//7 8//7
f 8//8 11//8 12//8 9//8
f 9//9 12//9 10//9 7//9
f 10//10 13//10 14//10 11//10
f 11//11 14//11 15//11 12//11
f 12//12 15//12 13//12 10//12
f 13//13 16//13 17//13 14//13
f 14//14 17//14 18//14 15//14
f 15//15 18//15 16//15 13//15
f 16//16 19//16 20//16 17//16
f 17//17 20//17 21//17 18//17
f 18//18 21//18 19//18 16//18
f 19//19 1//19 2//19 20//19
f 20//20 2//20 3//20 21//20
f 21//21 3//21 1//21 19//21
o Torus
v -0.000000 0.000000 -1.250000
v -0.216506 -0.000000 -0.875000
v 0.216506 0.000000 -0.875000
v 0.000000 -0.977289 -0.779362
v -0.216506 -0.684103 -0.545553
v 0.216506 -0.684103 -0.545553
v 0.000000 -1.218660 0.278151
v -0.216506 -0.853062 0.194706
v 0.216506 -0.853062 0.194706
v 0.000000 -0.542355 1.126211
v -0.216506 -0.379648 0.788348
v 0.216506 -0.379648 0.788348
v 0.000000 0.542354 1.126211
v -0.216506 0.379648 0.788348
v 0.216506 0.379648 0.788348
v -0.000000 1.218660 0.278151
v -0.216506 0.853062 0.194706
v 0.216506 0.853062 0.194706
v -0.000000 0.977290 -0.779362
v -0.216506 0.684103 -0.545553
v 0.216506 0.684103 -0.545553
vn -0.8420 -0.2341 -0.4861
vn -0.0000 0.4339 0.9010
vn 0.8420 -0.2341 -0.4861
vn -0.8420 -0.5260 -0.1201
vn 0.0000 0.9749 0.2225
vn 0.8420 -0.5260 -0.1201
vn -0.8420 -0.4218 0.3364
vn 0.0000 0.7818 -0.6235
vn 0.8420 -0.4218 0.3364
vn -0.8420 -0.0000 0.5395
vn 0.0000 0.0000 -1.0000
vn 0.8420 -0.0000 0.5395
vn -0.8420 0.4218 0.3364
vn 0.0000 -0.7818 -0.6235
vn 0.8420 0.4218 0.3364
vn -0.8420 0.5260 -0.1201
vn 0.0000 -0.9749 0.2225
vn 0.8420 0.5260 -0.1201
vn -0.8420 0.2341 -0.4861
vn 0.0000 -0.4339 0.9010
vn 0.8420 0.2341 -0.4861
usemtl None
s off
f 22//22 25//22 26//22 23//22
f 23//23 26//23 27//23 24//23
f 22//24 24//24 27//24 25//24
f 25//25 28//25 29//25 26//25
f 26//26 29//26 30//26 27//26
f 27//27 30//27 28//27 25//27
f 28//28 31//28 32//28 29//28
f 29//29 32//29 33//29 30//29
f 30//30 33//30 31//30 28//30
f 31//31 34//31 35//31 32//31
f 32//32 35//32 36//32 33//32
f 33//33 36//33 34//33 31//33
f 34//34 37//34 38//34 35//34
f 35//35 38//35 39//35 36//35
f 36//36 39//36 37//36 34//36
f 37//37 40//37 41//37 38//37
f 38//38 41//38 42//38 39//38
f 39//39 42//39 40//39 37//39
f 40//40 22//40 23//40 41//40
f 41//41 23//41 24//41 42//41
f 42//42 24//42 22//42 40//42
o Cone
v 3.000000 -0.000000 -1.000000
v 3.000000 0.781832 -0.623490
v 3.000000 0.974928 0.222521
v -3.000000 -0.000000 0.000000
v 3.000000 0.433884 0.900969
v 3.000000 -0.433884 0.900969
v 3.000000 -0.974928 0.222521
v 3.000000 -0.781832 -0.623490
v 3.000000 -0.000000 -0.540729
v 3.000000 0.422759 -0.337139
v 3.000000 0.527172 0.120324
v 3.000000 0.234614 0.487180
v 3.000000 -0.234614 0.487180
v 3.000000 -0.527172 0.120324
v 3.000000 -0.422759 -0.337139
v 1.386613 -0.000000 -0.540729
v 1.386613 0.422759 -0.337139
v 1.386613 0.527172 0.120324
v 1.386613 0.234614 0.487180
v 1.386613 -0.234614 0.487180
v 1.386613 -0.527172 0.120324
v 1.386613 -0.422759 -0.337139
vn -0.1485 0.4291 -0.8910
vn -0.1485 0.9641 -0.2201
vn -0.1485 0.7732 0.6166
vn -0.1485 -0.0000 0.9889
vn -0.1485 -0.7732 0.6166
vn -0.1485 -0.9641 -0.2201
vn -0.1485 -0.4291 -0.8910
vn 1.0000 0.0000 0.0000
vn 0.0000 0.9749 0.2225
vn 0.0000 0.0000 -1.0000
vn 0.0000 -0.9749 0.2225
vn 0.0000 0.4339 0.9010
vn 0.0000 0.7818 -0.6235
vn 0.0000 -0.7818 -0.6235
vn 0.0000 -0.4339 0.9010
usemtl None
s off
f 43//43 46//43 44//43
f 44//44 46//44 45//44
f 45//45 46//45 47//45
f 47//46 46//46 48//46
f 48//47 46//47 49//47
f 49//48 46//48 50//48
f 50//49 46//49 43//49
f 49//50 50//50 57//50 56//50
f 56//51 57//51 64//51 63//51
f 48//50 49//50 56//50 55//50
f 47//50 48//50 55//50 54//50
f 45//50 47//50 54//50 53//50
f 50//50 43//50 51//50 57//50
f 43//50 44//50 52//50 51//50
f 44//50 45//50 53//50 52//50
f 58//50 59//50 60//50 61//50 62//50 63//50 64//50
f 54//52 55//52 62//52 61//52
f 52//53 53//53 60//53 59//53
f 57//54 51//54 58//54 64//54
f 55//55 56//55 63//55 62//55
f 53//56 54//56 61//56 60//56
f 51//57 52//57 59//57 58//57
