# Blender v2.78 (sub 0) OBJ File: 'sphere_bowl.blend'
# www.blender.org
mtllib sphere_bowl.mtl
o Sphere
v 0.175581 0.000000 -0.882707
v 0.344415 0.000000 -0.831491
v 0.500013 0.000000 -0.748322
v 0.636396 0.000000 -0.636396
v 0.748323 0.000000 -0.500013
v 0.831492 0.000000 -0.344415
v 0.882707 0.000000 -0.175581
v 0.900000 0.000000 0.000000
v 0.882707 0.000000 0.175582
v 0.831492 0.000000 0.344415
v 0.748323 0.000000 0.500014
v 0.636396 0.000000 0.636397
v 0.500013 0.000000 0.748323
v 0.344415 0.000000 0.831492
v 0.175581 0.000000 0.882707
v -0.000000 0.000000 0.900000
v -0.175581 0.000000 0.882707
v -0.344415 0.000000 0.831492
v -0.500013 0.000000 0.748323
v -0.636396 0.000000 0.636396
v -0.748323 0.000000 0.500013
v -0.831492 0.000000 0.344415
v -0.882707 0.000000 0.175581
v -0.900000 0.000000 0.000000
v -0.882706 0.000000 -0.175581
v -0.831491 0.000000 -0.344415
v -0.748322 0.000000 -0.500013
v -0.636396 0.000000 -0.636396
v -0.500013 0.000000 -0.748322
v -0.344415 0.000000 -0.831491
v -0.175581 0.000000 -0.882706
v 0.000000 0.000000 -0.899999
v 0.038060 0.980785 -0.191342
v 0.074658 0.923880 -0.375330
v 0.108386 0.831470 -0.544895
v 0.137950 0.707107 -0.693520
v 0.162212 0.555570 -0.815493
v 0.180240 0.382683 -0.906127
v 0.191342 0.195090 -0.961940
v 0.195090 0.000000 -0.980785
v 0.074658 0.980785 -0.180240
v 0.146447 0.923880 -0.353553
v 0.212608 0.831470 -0.513280
v 0.270598 0.707107 -0.653281
v 0.318190 0.555570 -0.768178
v 0.353553 0.382683 -0.853553
v 0.375330 0.195090 -0.906127
v 0.382684 0.000000 -0.923879
v 0.108387 0.980785 -0.162212
v 0.212608 0.923880 -0.318190
v 0.308658 0.831470 -0.461940
v 0.392848 0.707107 -0.587938
v 0.461940 0.555570 -0.691342
v 0.513280 0.382683 -0.768178
v 0.544895 0.195090 -0.815493
v 0.555570 0.000000 -0.831469
v 0.137950 0.980785 -0.137950
v 0.270598 0.923880 -0.270598
v 0.392848 0.831470 -0.392847
v 0.500000 0.707107 -0.500000
v 0.587938 0.555570 -0.587938
v 0.653282 0.382683 -0.653281
v 0.693520 0.195090 -0.693520
v 0.707107 0.000000 -0.707107
v 0.162212 0.980785 -0.108386
v 0.318190 0.923880 -0.212607
v 0.461940 0.831470 -0.308658
v 0.587938 0.707107 -0.392847
v 0.691342 0.555570 -0.461940
v 0.768178 0.382683 -0.513280
v 0.815493 0.195090 -0.544895
v 0.831470 0.000000 -0.555570
v 0.180240 0.980785 -0.074658
v 0.353554 0.923880 -0.146446
v 0.513280 0.831470 -0.212607
v 0.653282 0.707107 -0.270598
v 0.768178 0.555570 -0.318189
v 0.853554 0.382683 -0.353553
v 0.906128 0.195090 -0.375330
v 0.923880 0.000000 -0.382683
v 0.191342 0.980785 -0.038060
v 0.375331 0.923880 -0.074658
v 0.544895 0.831470 -0.108386
v 0.693520 0.707107 -0.137949
v 0.815493 0.555570 -0.162211
v 0.906128 0.382683 -0.180240
v 0.961940 0.195090 -0.191341
v 0.980785 0.000000 -0.195090
v 0.195091 0.980785 0.000000
v 0.382684 0.923880 0.000000
v 0.555570 0.831470 0.000000
v 0.707107 0.707107 0.000000
v 0.831470 0.555570 0.000000
v 0.923880 0.382683 0.000000
v 0.980785 0.195090 0.000000
v 1.000000 0.000000 0.000000
v 0.191342 0.980785 0.038061
v 0.375331 0.923880 0.074658
v 0.544895 0.831470 0.108387
v 0.693520 0.707107 0.137950
v 0.815493 0.555570 0.162212
v 0.906128 0.382683 0.180240
v 0.961940 0.195090 0.191342
v 0.980785 0.000000 0.195091
v 0.180240 0.980785 0.074658
v 0.353554 0.923880 0.146447
v 0.513280 0.831470 0.212608
v 0.653282 0.707107 0.270598
v 0.768178 0.555570 0.318190
v 0.853554 0.382683 0.353554
v 0.906127 0.195090 0.375331
v 0.923880 0.000000 0.382684
v 0.162212 0.980785 0.108387
v 0.318190 0.923880 0.212608
v 0.461940 0.831470 0.308659
v 0.587938 0.707107 0.392848
v 0.691342 0.555570 0.461940
v 0.768178 0.382683 0.513280
v 0.815493 0.195090 0.544895
v 0.831470 0.000000 0.555571
v 0.137950 0.980785 0.137950
v 0.270598 0.923880 0.270599
v 0.392848 0.831470 0.392848
v 0.500000 0.707107 0.500000
v 0.587938 0.555570 0.587938
v 0.653282 0.382683 0.653282
v 0.693520 0.195090 0.693520
v 0.707107 0.000000 0.707107
v 0.108386 0.980785 0.162212
v 0.212608 0.923880 0.318190
v 0.308658 0.831470 0.461940
v 0.392848 0.707107 0.587938
v 0.461940 0.555570 0.691342
v 0.513280 0.382683 0.768178
v 0.544895 0.195090 0.815493
v 0.555570 0.000000 0.831470
v 0.074658 0.980785 0.180240
v 0.146447 0.923880 0.353554
v 0.212608 0.831470 0.513280
v 0.270598 0.707107 0.653282
v 0.318190 0.555570 0.768178
v 0.353553 0.382683 0.853554
v 0.375330 0.195090 0.906128
v 0.382683 0.000000 0.923880
v 0.038060 0.980785 0.191342
v 0.074658 0.923880 0.375331
v 0.108386 0.831470 0.544896
v 0.137950 0.707107 0.693520
v 0.162212 0.555570 0.815493
v 0.180240 0.382683 0.906128
v 0.191342 0.195090 0.961940
v 0.195090 0.000000 0.980786
v -0.000000 0.980785 0.195091
v 0.000000 0.923880 0.382684
v 0.000000 0.831470 0.555571
v -0.000000 0.707107 0.707107
v -0.000000 0.555570 0.831470
v 0.000000 0.382683 0.923880
v -0.000000 0.195090 0.980785
v -0.000000 0.000000 1.000000
v -0.038060 0.980785 0.191342
v -0.074658 0.923880 0.375331
v -0.108386 0.831470 0.544896
v -0.137950 0.707107 0.693520
v -0.162212 0.555570 0.815493
v -0.180240 0.382683 0.906128
v -0.191342 0.195090 0.961940
v -0.195090 0.000000 0.980786
v -0.074658 0.980785 0.180240
v -0.146447 0.923880 0.353554
v -0.212608 0.831470 0.513280
v -0.270598 0.707107 0.653282
v -0.318190 0.555570 0.768178
v -0.353553 0.382683 0.853554
v -0.375330 0.195090 0.906127
v -0.382684 0.000000 0.923880
v -0.000000 1.000000 0.000001
v -0.108386 0.980785 0.162212
v -0.212608 0.923880 0.318190
v -0.308658 0.831470 0.461940
v -0.392847 0.707107 0.587938
v -0.461940 0.555570 0.691342
v -0.513280 0.382683 0.768178
v -0.544895 0.195090 0.815493
v -0.555570 0.000000 0.831470
v -0.137950 0.980785 0.137950
v -0.270598 0.923880 0.270598
v -0.392848 0.831470 0.392848
v -0.500000 0.707107 0.500000
v -0.587938 0.555570 0.587938
v -0.653281 0.382683 0.653282
v -0.693520 0.195090 0.693520
v -0.707107 0.000000 0.707107
v -0.162212 0.980785 0.108387
v -0.318190 0.923880 0.212608
v -0.461940 0.831470 0.308659
v -0.587938 0.707107 0.392848
v -0.691342 0.555570 0.461940
v -0.768178 0.382683 0.513280
v -0.815493 0.195090 0.544895
v -0.831470 0.000000 0.555570
v -0.180240 0.980785 0.074658
v -0.353553 0.923880 0.146447
v -0.513280 0.831470 0.212608
v -0.653281 0.707107 0.270598
v -0.768177 0.555570 0.318190
v -0.853553 0.382683 0.353554
v -0.906127 0.195090 0.375330
v -0.923880 0.000000 0.382684
v -0.191342 0.980785 0.038061
v -0.375330 0.923880 0.074658
v -0.544895 0.831470 0.108387
v -0.693520 0.707107 0.137950
v -0.815493 0.555570 0.162212
v -0.906127 0.382683 0.180240
v -0.961939 0.195090 0.191342
v -0.980785 0.000000 0.195090
v -0.195090 0.980785 0.000000
v -0.382683 0.923880 0.000000
v -0.555570 0.831470 0.000000
v -0.707107 0.707107 0.000000
v -0.831469 0.555570 0.000000
v -0.923879 0.382683 0.000000
v -0.980785 0.195090 0.000000
v -1.000000 0.000000 0.000000
v -0.191342 0.980785 -0.038060
v -0.375330 0.923880 -0.074658
v -0.544895 0.831470 -0.108386
v -0.693520 0.707107 -0.137949
v -0.815493 0.555570 -0.162211
v -0.906127 0.382683 -0.180240
v -0.961939 0.195090 -0.191342
v -0.980785 0.000000 -0.195090
v -0.180240 0.980785 -0.074658
v -0.353553 0.923880 -0.146446
v -0.513280 0.831470 -0.212607
v -0.653281 0.707107 -0.270598
v -0.768177 0.555570 -0.318189
v -0.853553 0.382683 -0.353553
v -0.906127 0.195090 -0.375330
v -0.923879 0.000000 -0.382683
v -0.162212 0.980785 -0.108386
v -0.318190 0.923880 -0.212607
v -0.461940 0.831470 -0.308658
v -0.587938 0.707107 -0.392847
v -0.691341 0.555570 -0.461939
v -0.768178 0.382683 -0.513280
v -0.815493 0.195090 -0.544895
v -0.831469 0.000000 -0.555570
v -0.137950 0.980785 -0.137949
v -0.270598 0.923880 -0.270598
v -0.392847 0.831470 -0.392847
v -0.500000 0.707107 -0.500000
v -0.587937 0.555570 -0.587937
v -0.653281 0.382683 -0.653281
v -0.693519 0.195090 -0.693519
v -0.707106 0.000000 -0.707106
v -0.108386 0.980785 -0.162211
v -0.212607 0.923880 -0.318189
v -0.308658 0.831470 -0.461939
v -0.392847 0.707107 -0.587937
v -0.461939 0.555570 -0.691341
v -0.513280 0.382683 -0.768177
v -0.544895 0.195090 -0.815492
v -0.555570 0.000000 -0.831469
v -0.074658 0.980785 -0.180240
v -0.146447 0.923880 -0.353553
v -0.212607 0.831470 -0.513280
v -0.270598 0.707107 -0.653281
v -0.318189 0.555570 -0.768177
v -0.353553 0.382683 -0.853553
v -0.375330 0.195090 -0.906127
v -0.382683 0.000000 -0.923879
v -0.038060 0.980785 -0.191342
v -0.074658 0.923880 -0.375330
v -0.108386 0.831470 -0.544895
v -0.137950 0.707107 -0.693520
v -0.162211 0.555570 -0.815492
v -0.180240 0.382683 -0.906127
v -0.191341 0.195090 -0.961939
v -0.195090 0.000000 -0.980785
v 0.000000 0.980785 -0.195090
v 0.000000 0.923880 -0.382683
v 0.000000 0.831470 -0.555570
v 0.000000 0.707107 -0.707106
v 0.000000 0.555570 -0.831469
v 0.000000 0.382683 -0.923879
v 0.000000 0.195090 -0.980784
v 0.000000 0.000000 -0.999999
v 0.282244 0.000000 0.850351
v -0.064656 0.000000 -0.893631
v 0.064656 0.000000 0.893632
v -0.282243 0.000000 -0.850350
vn 0.0938 0.2890 -0.9527
vn 0.0975 0.0976 -0.9904
vn 0.0097 0.9951 -0.0980
vn 0.0286 0.9565 -0.2902
vn 0.0464 0.8810 -0.4709
vn 0.0624 0.7715 -0.6332
vn 0.0759 0.6326 -0.7708
vn 0.0865 0.4696 -0.8786
vn 0.2248 0.6326 -0.7412
vn 0.2563 0.4696 -0.8448
vn 0.2779 0.2890 -0.9161
vn 0.2889 0.0975 -0.9524
vn 0.0286 0.9951 -0.0942
vn 0.0846 0.9565 -0.2790
vn 0.1374 0.8810 -0.4528
vn 0.1847 0.7715 -0.6088
vn 0.1374 0.9565 -0.2571
vn 0.2230 0.8810 -0.4173
vn 0.2999 0.7715 -0.5611
vn 0.3651 0.6326 -0.6831
vn 0.4162 0.4696 -0.7786
vn 0.4513 0.2890 -0.8443
vn 0.4691 0.0975 -0.8777
vn 0.0464 0.9951 -0.0869
vn 0.5601 0.4696 -0.6825
vn 0.6073 0.2890 -0.7400
vn 0.6314 0.0976 -0.7693
vn 0.0625 0.9951 -0.0761
vn 0.1850 0.9565 -0.2254
vn 0.3002 0.8810 -0.3658
vn 0.4036 0.7715 -0.4918
vn 0.4913 0.6326 -0.5987
vn 0.3658 0.8810 -0.3002
vn 0.4918 0.7715 -0.4036
vn 0.5987 0.6326 -0.4913
vn 0.6825 0.4696 -0.5601
vn 0.7400 0.2890 -0.6073
vn 0.7693 0.0975 -0.6314
vn 0.0761 0.9951 -0.0625
vn 0.2254 0.9565 -0.1850
vn 0.8443 0.2890 -0.4513
vn 0.8777 0.0976 -0.4691
vn 0.0869 0.9951 -0.0464
vn 0.2571 0.9565 -0.1374
vn 0.4173 0.8810 -0.2231
vn 0.5611 0.7715 -0.2999
vn 0.6831 0.6326 -0.3651
vn 0.7786 0.4696 -0.4162
vn 0.4528 0.8810 -0.1374
vn 0.6088 0.7715 -0.1847
vn 0.7412 0.6326 -0.2248
vn 0.8448 0.4696 -0.2563
vn 0.9161 0.2890 -0.2779
vn 0.9524 0.0976 -0.2889
vn 0.0942 0.9951 -0.0286
vn 0.2790 0.9565 -0.0846
vn 0.9527 0.2890 -0.0938
vn 0.9904 0.0976 -0.0975
vn 0.0980 0.9951 -0.0097
vn 0.2902 0.9565 -0.0286
vn 0.4709 0.8810 -0.0464
vn 0.6332 0.7715 -0.0624
vn 0.7708 0.6326 -0.0759
vn 0.8786 0.4696 -0.0865
vn 0.6332 0.7715 0.0624
vn 0.7708 0.6326 0.0759
vn 0.8786 0.4696 0.0865
vn 0.9527 0.2890 0.0938
vn 0.9904 0.0976 0.0975
vn 0.0980 0.9951 0.0097
vn 0.2902 0.9565 0.0286
vn 0.4709 0.8810 0.0464
vn 0.9524 0.0976 0.2889
vn 0.0942 0.9951 0.0286
vn 0.2790 0.9565 0.0846
vn 0.4528 0.8810 0.1374
vn 0.6088 0.7715 0.1847
vn 0.7412 0.6326 0.2248
vn 0.8448 0.4696 0.2563
vn 0.9161 0.2890 0.2779
vn 0.5611 0.7715 0.2999
vn 0.6831 0.6326 0.3651
vn 0.7786 0.4696 0.4162
vn 0.8443 0.2890 0.4513
vn 0.8777 0.0976 0.4691
vn 0.0869 0.9951 0.0464
vn 0.2571 0.9565 0.1374
vn 0.4173 0.8810 0.2231
vn 0.7693 0.0976 0.6314
vn 0.0761 0.9951 0.0625
vn 0.2254 0.9565 0.1850
vn 0.3658 0.8810 0.3002
vn 0.4918 0.7715 0.4036
vn 0.5987 0.6326 0.4913
vn 0.6825 0.4696 0.5601
vn 0.7400 0.2890 0.6073
vn 0.4913 0.6326 0.5987
vn 0.5601 0.4696 0.6825
vn 0.6073 0.2890 0.7400
vn 0.6314 0.0976 0.7693
vn 0.0625 0.9951 0.0761
vn 0.1850 0.9565 0.2254
vn 0.3002 0.8810 0.3658
vn 0.4036 0.7715 0.4918
vn 0.1374 0.9565 0.2571
vn 0.2230 0.8810 0.4173
vn 0.2999 0.7715 0.5611
vn 0.3651 0.6326 0.6831
vn 0.4162 0.4696 0.7786
vn 0.4513 0.2890 0.8443
vn 0.4691 0.0976 0.8777
vn 0.0464 0.9951 0.0869
vn 0.2563 0.4696 0.8448
vn 0.2779 0.2890 0.9161
vn 0.2889 0.0976 0.9524
vn 0.0286 0.9951 0.0942
vn 0.0846 0.9565 0.2790
vn 0.1374 0.8810 0.4528
vn 0.1847 0.7715 0.6088
vn 0.2248 0.6326 0.7412
vn 0.0286 0.9565 0.2902
vn 0.0464 0.8810 0.4709
vn 0.0624 0.7715 0.6332
vn 0.0759 0.6326 0.7708
vn 0.0865 0.4696 0.8786
vn 0.0938 0.2890 0.9527
vn 0.0975 0.0976 0.9904
vn 0.0097 0.9951 0.0980
vn -0.0865 0.4696 0.8786
vn -0.0938 0.2890 0.9527
vn -0.0976 0.0976 0.9904
vn -0.0097 0.9951 0.0980
vn -0.0286 0.9565 0.2902
vn -0.0464 0.8810 0.4709
vn -0.0624 0.7715 0.6332
vn -0.0759 0.6326 0.7708
vn -0.1374 0.8810 0.4528
vn -0.1847 0.7715 0.6088
vn -0.2248 0.6326 0.7412
vn -0.2563 0.4696 0.8448
vn -0.2779 0.2890 0.9161
vn -0.2889 0.0976 0.9524
vn -0.0286 0.9951 0.0942
vn -0.0846 0.9565 0.2790
vn -0.4513 0.2890 0.8443
vn -0.4691 0.0976 0.8777
vn -0.0464 0.9951 0.0869
vn -0.1374 0.9565 0.2571
vn -0.2230 0.8810 0.4173
vn -0.2999 0.7715 0.5611
vn -0.3651 0.6326 0.6831
vn -0.4162 0.4696 0.7786
vn -0.3002 0.8810 0.3658
vn -0.4036 0.7715 0.4918
vn -0.4913 0.6326 0.5987
vn -0.5601 0.4696 0.6825
vn -0.6073 0.2890 0.7400
vn -0.6314 0.0976 0.7693
vn -0.0625 0.9951 0.0761
vn -0.1850 0.9565 0.2254
vn -0.7400 0.2890 0.6073
vn -0.7693 0.0976 0.6314
vn -0.0761 0.9951 0.0625
vn -0.2254 0.9565 0.1850
vn -0.3658 0.8810 0.3002
vn -0.4918 0.7715 0.4036
vn -0.5987 0.6326 0.4913
vn -0.6825 0.4696 0.5601
vn -0.5611 0.7715 0.2999
vn -0.6831 0.6326 0.3651
vn -0.7786 0.4696 0.4162
vn -0.8443 0.2890 0.4513
vn -0.8777 0.0976 0.4691
vn -0.0869 0.9951 0.0464
vn -0.2571 0.9565 0.1374
vn -0.4173 0.8810 0.2231
vn -0.9524 0.0976 0.2889
vn -0.0942 0.9951 0.0286
vn -0.2790 0.9565 0.0846
vn -0.4528 0.8810 0.1374
vn -0.6088 0.7715 0.1847
vn -0.7412 0.6326 0.2248
vn -0.8448 0.4696 0.2563
vn -0.9161 0.2890 0.2779
vn -0.7708 0.6326 0.0759
vn -0.8786 0.4696 0.0865
vn -0.9527 0.2890 0.0938
vn -0.9904 0.0976 0.0975
vn -0.0980 0.9951 0.0097
vn -0.2902 0.9565 0.0286
vn -0.4709 0.8810 0.0464
vn -0.6332 0.7715 0.0624
vn -0.0980 0.9951 -0.0097
vn -0.2902 0.9565 -0.0286
vn -0.4709 0.8810 -0.0464
vn -0.6332 0.7715 -0.0624
vn -0.7708 0.6326 -0.0759
vn -0.8786 0.4696 -0.0865
vn -0.9527 0.2890 -0.0938
vn -0.9904 0.0976 -0.0976
vn -0.7412 0.6326 -0.2248
vn -0.8448 0.4696 -0.2563
vn -0.9161 0.2890 -0.2779
vn -0.9524 0.0976 -0.2889
vn -0.0942 0.9951 -0.0286
vn -0.2790 0.9565 -0.0846
vn -0.4528 0.8810 -0.1374
vn -0.6088 0.7715 -0.1847
vn -0.2571 0.9565 -0.1374
vn -0.4173 0.8810 -0.2231
vn -0.5611 0.7715 -0.2999
vn -0.6831 0.6326 -0.3651
vn -0.7786 0.4696 -0.4162
vn -0.8443 0.2890 -0.4513
vn -0.8777 0.0976 -0.4691
vn -0.0869 0.9951 -0.0464
vn -0.6825 0.4696 -0.5601
vn -0.7400 0.2890 -0.6073
vn -0.7693 0.0976 -0.6314
vn -0.0761 0.9951 -0.0625
vn -0.2254 0.9565 -0.1850
vn -0.3658 0.8810 -0.3002
vn -0.4918 0.7715 -0.4036
vn -0.5987 0.6326 -0.4913
vn -0.1850 0.9565 -0.2254
vn -0.3002 0.8810 -0.3658
vn -0.4036 0.7715 -0.4918
vn -0.4913 0.6326 -0.5987
vn -0.5601 0.4696 -0.6825
vn -0.6073 0.2890 -0.7400
vn -0.6314 0.0976 -0.7693
vn -0.0625 0.9951 -0.0761
vn -0.4162 0.4696 -0.7786
vn -0.4513 0.2890 -0.8443
vn -0.4691 0.0976 -0.8777
vn -0.0464 0.9951 -0.0869
vn -0.1374 0.9565 -0.2571
vn -0.2230 0.8810 -0.4173
vn -0.2999 0.7715 -0.5611
vn -0.3651 0.6326 -0.6831
vn -0.1374 0.8810 -0.4528
vn -0.1847 0.7715 -0.6088
vn -0.2248 0.6326 -0.7412
vn -0.2563 0.4696 -0.8448
vn -0.2779 0.2890 -0.9161
vn -0.2889 0.0976 -0.9524
vn -0.0286 0.9951 -0.0942
vn -0.0846 0.9565 -0.2790
vn -0.0938 0.2890 -0.9527
vn -0.0975 0.0976 -0.9904
vn -0.0097 0.9951 -0.0980
vn -0.0286 0.9565 -0.2902
vn -0.0464 0.8810 -0.4709
vn -0.0624 0.7715 -0.6332
vn -0.0759 0.6326 -0.7708
vn -0.0865 0.4696 -0.8786
vn 0.0000 -1.0000 -0.0000
usemtl None
s off
f 288//1 287//1 38//1 39//1
f 289//2 288//2 39//2 40//2
f 282//3 177//3 33//3
f 283//4 282//4 33//4 34//4
f 284//5 283//5 34//5 35//5
f 285//6 284//6 35//6 36//6
f 286//7 285//7 36//7 37//7
f 287//8 286//8 37//8 38//8
f 37//9 36//9 44//9 45//9
f 38//10 37//10 45//10 46//10
f 39//11 38//11 46//11 47//11
f 40//12 39//12 47//12 48//12
f 33//13 177//13 41//13
f 34//14 33//14 41//14 42//14
f 35//15 34//15 42//15 43//15
f 36//16 35//16 43//16 44//16
f 42//17 41//17 49//17 50//17
f 43//18 42//18 50//18 51//18
f 44//19 43//19 51//19 52//19
f 45//20 44//20 52//20 53//20
f 46//21 45//21 53//21 54//21
f 47//22 46//22 54//22 55//22
f 48//23 47//23 55//23 56//23
f 41//24 177//24 49//24
f 54//25 53//25 61//25 62//25
f 55//26 54//26 62//26 63//26
f 56//27 55//27 63//27 64//27
f 49//28 177//28 57//28
f 50//29 49//29 57//29 58//29
f 51//30 50//30 58//30 59//30
f 52//31 51//31 59//31 60//31
f 53//32 52//32 60//32 61//32
f 59//33 58//33 66//33 67//33
f 60//34 59//34 67//34 68//34
f 61//35 60//35 68//35 69//35
f 62//36 61//36 69//36 70//36
f 63//37 62//37 70//37 71//37
f 64//38 63//38 71//38 72//38
f 57//39 177//39 65//39
f 58//40 57//40 65//40 66//40
f 71//41 70//41 78//41 79//41
f 72//42 71//42 79//42 80//42
f 65//43 177//43 73//43
f 66//44 65//44 73//44 74//44
f 67//45 66//45 74//45 75//45
f 68//46 67//46 75//46 76//46
f 69//47 68//47 76//47 77//47
f 70//48 69//48 77//48 78//48
f 75//49 74//49 82//49 83//49
f 76//50 75//50 83//50 84//50
f 77//51 76//51 84//51 85//51
f 78//52 77//52 85//52 86//52
f 79//53 78//53 86//53 87//53
f 80//54 79//54 87//54 88//54
f 73//55 177//55 81//55
f 74//56 73//56 81//56 82//56
f 87//57 86//57 94//57 95//57
f 88//58 87//58 95//58 96//58
f 81//59 177//59 89//59
f 82//60 81//60 89//60 90//60
f 83//61 82//61 90//61 91//61
f 84//62 83//62 91//62 92//62
f 85//63 84//63 92//63 93//63
f 86//64 85//64 93//64 94//64
f 92//65 91//65 99//65 100//65
f 93//66 92//66 100//66 101//66
f 94//67 93//67 101//67 102//67
f 95//68 94//68 102//68 103//68
f 96//69 95//69 103//69 104//69
f 89//70 177//70 97//70
f 90//71 89//71 97//71 98//71
f 91//72 90//72 98//72 99//72
f 104//73 103//73 111//73 112//73
f 97//74 177//74 105//74
f 98//75 97//75 105//75 106//75
f 99//76 98//76 106//76 107//76
f 100//77 99//77 107//77 108//77
f 101//78 100//78 108//78 109//78
f 102//79 101//79 109//79 110//79
f 103//80 102//80 110//80 111//80
f 108//81 107//81 115//81 116//81
f 109//82 108//82 116//82 117//82
f 110//83 109//83 117//83 118//83
f 111//84 110//84 118//84 119//84
f 112//85 111//85 119//85 120//85
f 105//86 177//86 113//86
f 106//87 105//87 113//87 114//87
f 107//88 106//88 114//88 115//88
f 120//89 119//89 127//89 128//89
f 113//90 177//90 121//90
f 114//91 113//91 121//91 122//91
f 115//92 114//92 122//92 123//92
f 116//93 115//93 123//93 124//93
f 117//94 116//94 124//94 125//94
f 118//95 117//95 125//95 126//95
f 119//96 118//96 126//96 127//96
f 125//97 124//97 132//97 133//97
f 126//98 125//98 133//98 134//98
f 127//99 126//99 134//99 135//99
f 128//100 127//100 135//100 136//100
f 121//101 177//101 129//101
f 122//102 121//102 129//102 130//102
f 123//103 122//103 130//103 131//103
f 124//104 123//104 131//104 132//104
f 130//105 129//105 137//105 138//105
f 131//106 130//106 138//106 139//106
f 132//107 131//107 139//107 140//107
f 133//108 132//108 140//108 141//108
f 134//109 133//109 141//109 142//109
f 135//110 134//110 142//110 143//110
f 136//111 135//111 143//111 144//111
f 129//112 177//112 137//112
f 142//113 141//113 149//113 150//113
f 143//114 142//114 150//114 151//114
f 144//115 143//115 151//115 152//115
f 137//116 177//116 145//116
f 138//117 137//117 145//117 146//117
f 139//118 138//118 146//118 147//118
f 140//119 139//119 147//119 148//119
f 141//120 140//120 148//120 149//120
f 146//121 145//121 153//121 154//121
f 147//122 146//122 154//122 155//122
f 148//123 147//123 155//123 156//123
f 149//124 148//124 156//124 157//124
f 150//125 149//125 157//125 158//125
f 151//126 150//126 158//126 159//126
f 152//127 151//127 159//127 160//127
f 145//128 177//128 153//128
f 158//129 157//129 165//129 166//129
f 159//130 158//130 166//130 167//130
f 160//131 159//131 167//131 168//131
f 153//132 177//132 161//132
f 154//133 153//133 161//133 162//133
f 155//134 154//134 162//134 163//134
f 156//135 155//135 163//135 164//135
f 157//136 156//136 164//136 165//136
f 163//137 162//137 170//137 171//137
f 164//138 163//138 171//138 172//138
f 165//139 164//139 172//139 173//139
f 166//140 165//140 173//140 174//140
f 167//141 166//141 174//141 175//141
f 168//142 167//142 175//142 176//142
f 161//143 177//143 169//143
f 162//144 161//144 169//144 170//144
f 175//145 174//145 183//145 184//145
f 176//146 175//146 184//146 185//146
f 169//147 177//147 178//147
f 170//148 169//148 178//148 179//148
f 171//149 170//149 179//149 180//149
f 172//150 171//150 180//150 181//150
f 173//151 172//151 181//151 182//151
f 174//152 173//152 182//152 183//152
f 180//153 179//153 187//153 188//153
f 181//154 180//154 188//154 189//154
f 182//155 181//155 189//155 190//155
f 183//156 182//156 190//156 191//156
f 184//157 183//157 191//157 192//157
f 185//158 184//158 192//158 193//158
f 178//159 177//159 186//159
f 179//160 178//160 186//160 187//160
f 192//161 191//161 199//161 200//161
f 193//162 192//162 200//162 201//162
f 186//163 177//163 194//163
f 187//164 186//164 194//164 195//164
f 188//165 187//165 195//165 196//165
f 189//166 188//166 196//166 197//166
f 190//167 189//167 197//167 198//167
f 191//168 190//168 198//168 199//168
f 197//169 196//169 204//169 205//169
f 198//170 197//170 205//170 206//170
f 199//171 198//171 206//171 207//171
f 200//172 199//172 207//172 208//172
f 201//173 200//173 208//173 209//173
f 194//174 177//174 202//174
f 195//175 194//175 202//175 203//175
f 196//176 195//176 203//176 204//176
f 209//177 208//177 216//177 217//177
f 202//178 177//178 210//178
f 203//179 202//179 210//179 211//179
f 204//180 203//180 211//180 212//180
f 205//181 204//181 212//181 213//181
f 206//182 205//182 213//182 214//182
f 207//183 206//183 214//183 215//183
f 208//184 207//184 215//184 216//184
f 214//185 213//185 221//185 222//185
f 215//186 214//186 222//186 223//186
f 216//187 215//187 223//187 224//187
f 217//188 216//188 224//188 225//188
f 210//189 177//189 218//189
f 211//190 210//190 218//190 219//190
f 212//191 211//191 219//191 220//191
f 213//192 212//192 220//192 221//192
f 218//193 177//193 226//193
f 219//194 218//194 226//194 227//194
f 220//195 219//195 227//195 228//195
f 221//196 220//196 228//196 229//196
f 222//197 221//197 229//197 230//197
f 223//198 222//198 230//198 231//198
f 224//199 223//199 231//199 232//199
f 225//200 224//200 232//200 233//200
f 230//201 229//201 237//201 238//201
f 231//202 230//202 238//202 239//202
f 232//203 231//203 239//203 240//203
f 233//204 232//204 240//204 241//204
f 226//205 177//205 234//205
f 227//206 226//206 234//206 235//206
f 228//207 227//207 235//207 236//207
f 229//208 228//208 236//208 237//208
f 235//209 234//209 242//209 243//209
f 236//210 235//210 243//210 244//210
f 237//211 236//211 244//211 245//211
f 238//212 237//212 245//212 246//212
f 239//213 238//213 246//213 247//213
f 240//214 239//214 247//214 248//214
f 241//215 240//215 248//215 249//215
f 234//216 177//216 242//216
f 247//217 246//217 254//217 255//217
f 248//218 247//218 255//218 256//218
f 249//219 248//219 256//219 257//219
f 242//220 177//220 250//220
f 243//221 242//221 250//221 251//221
f 244//222 243//222 251//222 252//222
f 245//223 244//223 252//223 253//223
f 246//224 245//224 253//224 254//224
f 251//225 250//225 258//225 259//225
f 252//226 251//226 259//226 260//226
f 253//227 252//227 260//227 261//227
f 254//228 253//228 261//228 262//228
f 255//229 254//229 262//229 263//229
f 256//230 255//230 263//230 264//230
f 257//231 256//231 264//231 265//231
f 250//232 177//232 258//232
f 263//233 262//233 270//233 271//233
f 264//234 263//234 271//234 272//234
f 265//235 264//235 272//235 273//235
f 258//236 177//236 266//236
f 259//237 258//237 266//237 267//237
f 260//238 259//238 267//238 268//238
f 261//239 260//239 268//239 269//239
f 262//240 261//240 269//240 270//240
f 268//241 267//241 275//241 276//241
f 269//242 268//242 276//242 277//242
f 270//243 269//243 277//243 278//243
f 271//244 270//244 278//244 279//244
f 272//245 271//245 279//245 280//245
f 273//246 272//246 280//246 281//246
f 266//247 177//247 274//247
f 267//248 266//248 274//248 275//248
f 280//249 279//249 287//249 288//249
f 281//250 280//250 288//250 289//250
f 274//251 177//251 282//251
f 275//252 274//252 282//252 283//252
f 276//253 275//253 283//253 284//253
f 277//254 276//254 284//254 285//254
f 278//255 277//255 285//255 286//255
f 279//256 278//256 286//256 287//256
f 289//257 40//257 48//257 56//257 64//257 72//257 80//257 88//257 96//257 8//257 7//257 6//257 5//257 4//257 3//257 2//257 1//257 32//257 291//257 31//257 293//257 30//257 29//257 28//257 27//257 26//257 25//257 24//257 225//257 233//257 241//257 249//257 257//257 265//257 273//257 281//257
f 225//257 24//257 23//257 22//257 21//257 20//257 19//257 18//257 17//257 16//257 292//257 15//257 290//257 14//257 13//257 12//257 11//257 10//257 9//257 8//257 96//257 104//257 112//257 120//257 128//257 136//257 144//257 152//257 160//257 168//257 176//257 185//257 193//257 201//257 209//257 217//257
