# Blender v2.78 (sub 0) OBJ File: 'tetra_platform_1_upsidedown.blend'
# www.blender.org
mtllib tetra_platform_1_upsidedown.mtl
o Cone
v 0.000000 0.000000 -0.500000
v -0.433013 0.000000 0.250000
v -0.000000 -2.000000 0.000000
v 0.433013 -0.000000 0.250000
v 0.000000 0.500000 -1.000000
v -0.866025 0.500000 0.500000
v 0.866026 0.500000 0.500000
vn -0.8593 -0.1240 -0.4961
vn 0.0000 -0.1240 0.9923
vn 0.8593 -0.1240 -0.4961
vn -0.7746 -0.4472 -0.4472
vn 0.0000 -0.4472 0.8944
vn 0.7746 -0.4472 -0.4472
vn 0.0000 1.0000 -0.0000
usemtl None
s off
f 1//1 3//1 2//1
f 2//2 3//2 4//2
f 4//3 3//3 1//3
f 5//4 1//4 2//4 6//4
f 6//5 2//5 4//5 7//5
f 7//6 4//6 1//6 5//6
f 5//7 6//7 7//7
