# Blender v2.78 (sub 0) OBJ File: 'tetra_platform_2_pedestal_catch.blend'
# www.blender.org
mtllib tetra_platform_2_pedestal_catch.mtl
o Cone
v 0.000000 -2.000000 -4.000000
v 3.464102 -2.000000 2.000000
v -3.464102 -2.000000 2.000000
v -0.000000 1.000000 -1.000000
v -0.000000 -2.000000 -1.000000
v -0.866026 1.000000 0.500000
v -0.866026 -2.000000 0.500000
v 0.866025 1.000000 0.500000
v 0.866025 -2.000000 0.500000
v 1.128843 -0.606951 -0.651738
v 1.128843 -2.000000 -0.651738
v -0.000000 -0.606951 1.303476
v -0.000000 -2.000000 1.303476
v -1.128843 -0.606952 -0.651738
v -1.128843 -2.000000 -0.651738
vn 0.7746 0.4472 -0.4472
vn -0.0000 0.4472 0.8944
vn -0.7746 0.4472 -0.4472
vn 0.0000 -1.0000 0.0000
vn 0.6801 -0.0000 -0.7331
vn -0.2948 0.0000 0.9556
vn 0.2948 0.0000 0.9556
vn -0.9749 0.0000 -0.2225
vn -0.6801 0.0000 -0.7331
vn 0.9749 -0.0000 -0.2225
usemtl None
s off
f 1//1 4//1 10//1 8//1 2//1
f 2//2 8//2 12//2 6//2 3//2
f 3//3 6//3 14//3 4//3 1//3
f 1//4 2//4 11//4 5//4 15//4 3//4
f 12//5 13//5 7//5 6//5
f 4//6 5//6 11//6 10//6
f 14//7 15//7 5//7 4//7
f 3//4 15//4 7//4 13//4 9//4 11//4 2//4
f 10//8 11//8 9//8 8//8
f 8//9 9//9 13//9 12//9
f 6//10 7//10 15//10 14//10
