# Blender v2.78 (sub 0) OBJ File: 'tetra_platform_3.blend'
# www.blender.org
mtllib tetra_platform_3.mtl
o Cone.001
v 0.000000 -1.000000 -1.000000
v 0.866025 -1.000000 0.500000
v 0.000000 1.000000 0.000000
v -0.866025 -1.000000 0.500000
v -0.000000 -0.090798 1.303476
v -1.128843 -0.090798 -0.651738
v 1.128843 -0.090798 -0.651738
v -0.000000 -1.000000 -0.600000
v 0.519615 -1.000000 0.300000
v -0.519615 -1.000000 0.300000
v -0.519615 -0.878773 0.607130
v 0.000000 -1.200000 0.000000
v 0.519615 -0.878773 0.607130
v -0.000000 -0.333252 1.089216
v 0.785598 -0.878773 0.146435
v -0.000000 -1.359128 1.517157
v 0.265982 -0.878773 -0.753565
v 0.943288 -0.333252 -0.544608
v -0.265982 -0.878773 -0.753565
v 1.313896 -1.359128 -0.758578
v -0.785598 -0.878773 0.146435
v -0.943289 -0.333252 -0.544608
v -1.313896 -1.359128 -0.758578
vn -0.0840 0.4456 -0.8913
vn -0.0000 -0.6622 0.7493
vn -0.6489 -0.6622 -0.3747
vn 0.0000 -1.0000 0.0000
vn 0.8138 0.4456 0.3729
vn -0.8138 0.4456 0.3729
vn 0.0840 0.4456 -0.8913
vn -0.7299 0.4456 0.5183
vn 0.7299 0.4456 0.5183
vn 0.6489 -0.6622 -0.3747
vn -0.4804 -0.8321 -0.2774
vn 0.0000 -0.8844 -0.4668
vn -0.0000 -0.8321 0.5547
vn 0.4804 -0.8321 -0.2774
vn -0.4043 -0.8844 0.2334
vn 0.7834 0.2393 0.5736
vn -0.7834 0.2393 0.5736
vn 0.4043 -0.8844 0.2334
vn 0.1051 0.2393 -0.9652
vn 0.8885 0.2393 0.3916
vn -0.8885 0.2393 0.3916
vn -0.1051 0.2393 -0.9652
usemtl None
s off
f 1//1 3//1 7//1
f 5//2 4//2 11//2 14//2
f 6//3 1//3 19//3 22//3
f 4//4 1//4 8//4 10//4
f 2//5 3//5 5//5
f 3//6 4//6 5//6
f 3//7 1//7 6//7
f 4//8 3//8 6//8
f 3//9 2//9 7//9
f 7//10 2//10 15//10 18//10
f 10//11 8//11 12//11
f 2//4 4//4 10//4 9//4
f 1//4 2//4 9//4 8//4
f 11//12 13//12 16//12
f 9//13 10//13 12//13
f 8//14 9//14 12//14
f 2//2 5//2 14//2 13//2
f 4//2 2//2 13//2 11//2
f 15//15 17//15 20//15
f 13//16 14//16 16//16
f 14//17 11//17 16//17
f 1//10 7//10 18//10 17//10
f 2//10 1//10 17//10 15//10
f 19//18 21//18 23//18
f 17//19 18//19 20//19
f 18//20 15//20 20//20
f 4//3 6//3 22//3 21//3
f 1//3 4//3 21//3 19//3
f 21//21 22//21 23//21
f 22//22 19//22 23//22
