# Blender v2.78 (sub 0) OBJ File: 'tetra_flower_2.blend'
# www.blender.org
mtllib tetra_flower_2.mtl
o Cone
v 0.000000 -1.500000 1.000000
v -0.500000 -2.000000 1.000000
v 0.000000 -2.500000 1.000000
v 0.500000 -2.000000 1.000000
v 0.000000 -1.500000 1.000000
v 0.500000 -2.000000 1.000000
v -0.000000 -2.500000 1.000000
v 0.000000 -2.000000 3.000000
v -0.500000 -2.000000 1.000000
v 1.000000 -2.000000 -0.500000
v 1.000000 -2.000000 0.500000
v 1.000000 -2.000000 -0.500000
v 1.000000 -2.000000 0.500000
v -1.000000 -2.000000 -0.500000
v -1.000000 -2.000000 0.500000
v -1.000000 -2.000000 -0.500000
v -1.000000 -2.000000 0.500000
v 0.000000 -1.000000 -1.000000
v 0.000000 -1.000000 1.000000
v 0.000000 -1.000000 -1.000000
v 0.000000 -1.000000 1.000000
v 0.000000 -1.500000 -1.000000
v -0.500000 -2.000000 -1.000000
v 0.000000 -2.500000 -1.000000
v -0.000000 -2.000000 0.000000
v 0.500000 -2.000000 -1.000000
v 0.000000 -1.500000 -1.000000
v 0.500000 -2.000000 -1.000000
v -0.000000 -2.500000 -1.000000
v 0.000000 -2.000000 -3.000000
v -0.500000 -2.000000 -1.000000
v 1.000000 -2.000000 0.500000
v 1.000000 -1.500000 0.000000
v 1.000000 -2.000000 -0.500000
v 1.000000 -2.500000 0.000000
v 1.000000 -2.000000 0.500000
v 1.000000 -2.500000 0.000000
v 1.000000 -2.000000 -0.500000
v 3.000000 -2.000000 0.000000
v 1.000000 -1.500000 0.000000
v -1.000000 -1.000000 0.000000
v 1.000000 -1.000000 0.000000
v 1.000000 -1.000000 0.000000
v -1.000000 -1.000000 0.000000
v -1.000000 -2.000000 0.500000
v -1.000000 -1.500000 0.000000
v -1.000000 -2.000000 -0.500000
v 0.000000 -2.000000 0.000000
v -1.000000 -2.500000 0.000000
v -1.000000 -2.000000 0.500000
v -1.000000 -2.500000 0.000000
v -1.000000 -2.000000 -0.500000
v -3.000000 -2.000000 0.000000
v -1.000000 -1.500000 0.000000
v 0.000000 -1.000000 1.000000
v 1.000000 -1.000000 0.000000
v 0.000000 -1.000000 -1.000000
v 0.000000 -2.000000 0.000000
v -1.000000 -1.000000 0.000000
v 0.000000 -1.000000 1.000000
v -1.000000 -1.000000 0.000000
v 0.000000 -1.000000 -1.000000
v 0.000000 1.000000 0.000000
v 1.000000 -1.000000 0.000000
vn -0.6667 0.6667 -0.3333
vn -0.6667 -0.6667 -0.3333
vn 0.6667 -0.6667 -0.3333
vn 0.6667 0.6667 -0.3333
vn 0.6963 0.6963 0.1741
vn 0.6963 -0.6963 0.1741
vn -0.6963 -0.6963 0.1741
vn -0.6963 0.6963 0.1741
vn 0.0000 0.0000 -1.0000
vn -0.3333 0.6667 -0.6667
vn -0.3333 0.6667 0.6667
vn -0.3333 -0.6667 0.6667
vn -0.3333 -0.6667 -0.6667
vn 0.1741 -0.6963 -0.6963
vn 0.1741 -0.6963 0.6963
vn 0.1741 0.6963 0.6963
vn 0.1741 0.6963 -0.6963
vn -1.0000 0.0000 0.0000
vn -0.5774 -0.5774 -0.5774
vn -0.5774 -0.5774 0.5774
vn 0.5774 -0.5774 0.5774
vn 0.5774 -0.5774 -0.5774
vn 0.6667 0.3333 -0.6667
vn 0.6667 0.3333 0.6667
vn -0.6667 0.3333 0.6667
vn -0.6667 0.3333 -0.6667
vn 0.0000 -1.0000 0.0000
vn 0.3333 0.6667 -0.6667
vn 0.3333 0.6667 0.6667
vn 0.3333 -0.6667 0.6667
vn 0.3333 -0.6667 -0.6667
vn -0.1741 -0.6963 -0.6963
vn -0.1741 -0.6963 0.6963
vn -0.1741 0.6963 0.6963
vn -0.1741 0.6963 -0.6963
vn 1.0000 0.0000 0.0000
vn -0.6667 0.6667 0.3333
vn -0.6667 -0.6667 0.3333
vn 0.6667 -0.6667 0.3333
vn 0.6667 0.6667 0.3333
vn 0.6963 0.6963 -0.1741
vn 0.6963 -0.6963 -0.1741
vn -0.6963 -0.6963 -0.1741
vn -0.6963 0.6963 -0.1741
vn 0.0000 0.0000 1.0000
usemtl None
s off
f 1//1 25//1 2//1
f 2//2 25//2 3//2
f 3//3 25//3 4//3
f 4//4 25//4 1//4
f 5//5 8//5 6//5
f 6//6 8//6 7//6
f 7//7 8//7 9//7
f 9//8 8//8 5//8
f 7//9 5//9 6//9
f 10//10 48//10 33//10
f 33//11 48//11 11//11
f 11//12 48//12 35//12
f 35//13 48//13 10//13
f 12//14 39//14 37//14
f 37//15 39//15 13//15
f 13//16 39//16 40//16
f 40//17 39//17 12//17
f 13//18 12//18 37//18
f 18//19 58//19 41//19
f 41//20 58//20 19//20
f 19//21 58//21 42//21
f 42//22 58//22 18//22
f 20//23 63//23 43//23
f 43//24 63//24 21//24
f 21//25 63//25 44//25
f 44//26 63//26 20//26
f 21//27 20//27 43//27
f 14//28 46//28 48//28
f 46//29 15//29 48//29
f 15//30 49//30 48//30
f 49//31 14//31 48//31
f 16//32 51//32 53//32
f 51//33 17//33 53//33
f 17//34 54//34 53//34
f 54//35 16//35 53//35
f 17//36 51//36 16//36
f 18//22 56//22 58//22
f 56//21 19//21 58//21
f 19//20 59//20 58//20
f 59//19 18//19 58//19
f 20//26 61//26 63//26
f 61//25 21//25 63//25
f 21//24 64//24 63//24
f 64//23 20//23 63//23
f 21//27 61//27 20//27
f 22//37 23//37 25//37
f 23//38 24//38 25//38
f 24//39 26//39 25//39
f 26//40 22//40 25//40
f 27//41 28//41 30//41
f 28//42 29//42 30//42
f 29//43 31//43 30//43
f 31//44 27//44 30//44
f 29//45 28//45 27//45
f 32//11 33//11 48//11
f 33//10 34//10 48//10
f 34//13 35//13 48//13
f 35//12 32//12 48//12
f 36//15 37//15 39//15
f 37//14 38//14 39//14
f 38//17 40//17 39//17
f 40//16 36//16 39//16
f 38//18 37//18 36//18
f 55//20 41//20 58//20
f 41//19 57//19 58//19
f 57//22 42//22 58//22
f 42//21 55//21 58//21
f 60//24 43//24 63//24
f 43//23 62//23 63//23
f 62//26 44//26 63//26
f 44//25 60//25 63//25
f 62//27 43//27 60//27
f 45//29 48//29 46//29
f 46//28 48//28 47//28
f 47//31 48//31 49//31
f 49//30 48//30 45//30
f 50//33 53//33 51//33
f 51//32 53//32 52//32
f 52//35 53//35 54//35
f 54//34 53//34 50//34
f 52//36 50//36 51//36
f 55//21 58//21 56//21
f 56//22 58//22 57//22
f 57//19 58//19 59//19
f 59//20 58//20 55//20
f 60//25 63//25 61//25
f 61//26 63//26 62//26
f 62//23 63//23 64//23
f 64//24 63//24 60//24
f 62//27 60//27 61//27
